G04 #@! TF.GenerationSoftware,KiCad,Pcbnew,(5.1.2)-2*
G04 #@! TF.CreationDate,2019-09-23T01:23:54-05:00*
G04 #@! TF.ProjectId,rtc,7274632e-6b69-4636-9164-5f7063625858,rev?*
G04 #@! TF.SameCoordinates,Original*
G04 #@! TF.FileFunction,Legend,Top*
G04 #@! TF.FilePolarity,Positive*
%FSLAX46Y46*%
G04 Gerber Fmt 4.6, Leading zero omitted, Abs format (unit mm)*
G04 Created by KiCad (PCBNEW (5.1.2)-2) date 2019-09-23 01:23:54*
%MOMM*%
%LPD*%
G04 APERTURE LIST*
%ADD10C,0.150000*%
%ADD11C,0.120000*%
G04 APERTURE END LIST*
D10*
X49961904Y-33552380D02*
X49628571Y-33076190D01*
X49390476Y-33552380D02*
X49390476Y-32552380D01*
X49771428Y-32552380D01*
X49866666Y-32600000D01*
X49914285Y-32647619D01*
X49961904Y-32742857D01*
X49961904Y-32885714D01*
X49914285Y-32980952D01*
X49866666Y-33028571D01*
X49771428Y-33076190D01*
X49390476Y-33076190D01*
X50771428Y-33504761D02*
X50676190Y-33552380D01*
X50485714Y-33552380D01*
X50390476Y-33504761D01*
X50342857Y-33409523D01*
X50342857Y-33028571D01*
X50390476Y-32933333D01*
X50485714Y-32885714D01*
X50676190Y-32885714D01*
X50771428Y-32933333D01*
X50819047Y-33028571D01*
X50819047Y-33123809D01*
X50342857Y-33219047D01*
X51676190Y-33552380D02*
X51676190Y-33028571D01*
X51628571Y-32933333D01*
X51533333Y-32885714D01*
X51342857Y-32885714D01*
X51247619Y-32933333D01*
X51676190Y-33504761D02*
X51580952Y-33552380D01*
X51342857Y-33552380D01*
X51247619Y-33504761D01*
X51200000Y-33409523D01*
X51200000Y-33314285D01*
X51247619Y-33219047D01*
X51342857Y-33171428D01*
X51580952Y-33171428D01*
X51676190Y-33123809D01*
X52295238Y-33552380D02*
X52200000Y-33504761D01*
X52152380Y-33409523D01*
X52152380Y-32552380D01*
X52676190Y-33171428D02*
X53438095Y-33171428D01*
X53771428Y-32552380D02*
X54342857Y-32552380D01*
X54057142Y-33552380D02*
X54057142Y-32552380D01*
X54676190Y-33552380D02*
X54676190Y-32885714D01*
X54676190Y-32552380D02*
X54628571Y-32600000D01*
X54676190Y-32647619D01*
X54723809Y-32600000D01*
X54676190Y-32552380D01*
X54676190Y-32647619D01*
X55152380Y-33552380D02*
X55152380Y-32885714D01*
X55152380Y-32980952D02*
X55200000Y-32933333D01*
X55295238Y-32885714D01*
X55438095Y-32885714D01*
X55533333Y-32933333D01*
X55580952Y-33028571D01*
X55580952Y-33552380D01*
X55580952Y-33028571D02*
X55628571Y-32933333D01*
X55723809Y-32885714D01*
X55866666Y-32885714D01*
X55961904Y-32933333D01*
X56009523Y-33028571D01*
X56009523Y-33552380D01*
X56866666Y-33504761D02*
X56771428Y-33552380D01*
X56580952Y-33552380D01*
X56485714Y-33504761D01*
X56438095Y-33409523D01*
X56438095Y-33028571D01*
X56485714Y-32933333D01*
X56580952Y-32885714D01*
X56771428Y-32885714D01*
X56866666Y-32933333D01*
X56914285Y-33028571D01*
X56914285Y-33123809D01*
X56438095Y-33219047D01*
X58676190Y-33457142D02*
X58628571Y-33504761D01*
X58485714Y-33552380D01*
X58390476Y-33552380D01*
X58247619Y-33504761D01*
X58152380Y-33409523D01*
X58104761Y-33314285D01*
X58057142Y-33123809D01*
X58057142Y-32980952D01*
X58104761Y-32790476D01*
X58152380Y-32695238D01*
X58247619Y-32600000D01*
X58390476Y-32552380D01*
X58485714Y-32552380D01*
X58628571Y-32600000D01*
X58676190Y-32647619D01*
X59247619Y-33552380D02*
X59152380Y-33504761D01*
X59104761Y-33409523D01*
X59104761Y-32552380D01*
X59771428Y-33552380D02*
X59676190Y-33504761D01*
X59628571Y-33457142D01*
X59580952Y-33361904D01*
X59580952Y-33076190D01*
X59628571Y-32980952D01*
X59676190Y-32933333D01*
X59771428Y-32885714D01*
X59914285Y-32885714D01*
X60009523Y-32933333D01*
X60057142Y-32980952D01*
X60104761Y-33076190D01*
X60104761Y-33361904D01*
X60057142Y-33457142D01*
X60009523Y-33504761D01*
X59914285Y-33552380D01*
X59771428Y-33552380D01*
X60961904Y-33504761D02*
X60866666Y-33552380D01*
X60676190Y-33552380D01*
X60580952Y-33504761D01*
X60533333Y-33457142D01*
X60485714Y-33361904D01*
X60485714Y-33076190D01*
X60533333Y-32980952D01*
X60580952Y-32933333D01*
X60676190Y-32885714D01*
X60866666Y-32885714D01*
X60961904Y-32933333D01*
X61390476Y-33552380D02*
X61390476Y-32552380D01*
X61485714Y-33171428D02*
X61771428Y-33552380D01*
X61771428Y-32885714D02*
X61390476Y-33266666D01*
X63247619Y-33933333D02*
X63200000Y-33885714D01*
X63104761Y-33742857D01*
X63057142Y-33647619D01*
X63009523Y-33504761D01*
X62961904Y-33266666D01*
X62961904Y-33076190D01*
X63009523Y-32838095D01*
X63057142Y-32695238D01*
X63104761Y-32600000D01*
X63200000Y-32457142D01*
X63247619Y-32409523D01*
X63628571Y-33552380D02*
X63628571Y-32885714D01*
X63628571Y-33076190D02*
X63676190Y-32980952D01*
X63723809Y-32933333D01*
X63819047Y-32885714D01*
X63914285Y-32885714D01*
X64628571Y-33504761D02*
X64533333Y-33552380D01*
X64342857Y-33552380D01*
X64247619Y-33504761D01*
X64200000Y-33409523D01*
X64200000Y-33028571D01*
X64247619Y-32933333D01*
X64342857Y-32885714D01*
X64533333Y-32885714D01*
X64628571Y-32933333D01*
X64676190Y-33028571D01*
X64676190Y-33123809D01*
X64200000Y-33219047D01*
X65009523Y-32885714D02*
X65247619Y-33552380D01*
X65485714Y-32885714D01*
X66390476Y-33552380D02*
X65819047Y-33552380D01*
X66104761Y-33552380D02*
X66104761Y-32552380D01*
X66009523Y-32695238D01*
X65914285Y-32790476D01*
X65819047Y-32838095D01*
X66723809Y-33933333D02*
X66771428Y-33885714D01*
X66866666Y-33742857D01*
X66914285Y-33647619D01*
X66961904Y-33504761D01*
X67009523Y-33266666D01*
X67009523Y-33076190D01*
X66961904Y-32838095D01*
X66914285Y-32695238D01*
X66866666Y-32600000D01*
X66771428Y-32457142D01*
X66723809Y-32409523D01*
X68409523Y-41404761D02*
X68552380Y-41452380D01*
X68790476Y-41452380D01*
X68885714Y-41404761D01*
X68933333Y-41357142D01*
X68980952Y-41261904D01*
X68980952Y-41166666D01*
X68933333Y-41071428D01*
X68885714Y-41023809D01*
X68790476Y-40976190D01*
X68600000Y-40928571D01*
X68504761Y-40880952D01*
X68457142Y-40833333D01*
X68409523Y-40738095D01*
X68409523Y-40642857D01*
X68457142Y-40547619D01*
X68504761Y-40500000D01*
X68600000Y-40452380D01*
X68838095Y-40452380D01*
X68980952Y-40500000D01*
X69980952Y-41357142D02*
X69933333Y-41404761D01*
X69790476Y-41452380D01*
X69695238Y-41452380D01*
X69552380Y-41404761D01*
X69457142Y-41309523D01*
X69409523Y-41214285D01*
X69361904Y-41023809D01*
X69361904Y-40880952D01*
X69409523Y-40690476D01*
X69457142Y-40595238D01*
X69552380Y-40500000D01*
X69695238Y-40452380D01*
X69790476Y-40452380D01*
X69933333Y-40500000D01*
X69980952Y-40547619D01*
X70885714Y-41452380D02*
X70409523Y-41452380D01*
X70409523Y-40452380D01*
X71219047Y-41452380D02*
X71219047Y-40452380D01*
X71790476Y-41452380D02*
X71361904Y-40880952D01*
X71790476Y-40452380D02*
X71219047Y-41023809D01*
X70776190Y-43952380D02*
X70776190Y-42952380D01*
X71442857Y-42952380D02*
X71633333Y-42952380D01*
X71728571Y-43000000D01*
X71823809Y-43095238D01*
X71871428Y-43285714D01*
X71871428Y-43619047D01*
X71823809Y-43809523D01*
X71728571Y-43904761D01*
X71633333Y-43952380D01*
X71442857Y-43952380D01*
X71347619Y-43904761D01*
X71252380Y-43809523D01*
X71204761Y-43619047D01*
X71204761Y-43285714D01*
X71252380Y-43095238D01*
X71347619Y-43000000D01*
X71442857Y-42952380D01*
X70957142Y-46457142D02*
X70909523Y-46504761D01*
X70766666Y-46552380D01*
X70671428Y-46552380D01*
X70528571Y-46504761D01*
X70433333Y-46409523D01*
X70385714Y-46314285D01*
X70338095Y-46123809D01*
X70338095Y-45980952D01*
X70385714Y-45790476D01*
X70433333Y-45695238D01*
X70528571Y-45600000D01*
X70671428Y-45552380D01*
X70766666Y-45552380D01*
X70909523Y-45600000D01*
X70957142Y-45647619D01*
X71385714Y-46028571D02*
X71719047Y-46028571D01*
X71861904Y-46552380D02*
X71385714Y-46552380D01*
X71385714Y-45552380D01*
X71861904Y-45552380D01*
X69266666Y-48052380D02*
X69600000Y-49052380D01*
X69933333Y-48052380D01*
X70838095Y-48957142D02*
X70790476Y-49004761D01*
X70647619Y-49052380D01*
X70552380Y-49052380D01*
X70409523Y-49004761D01*
X70314285Y-48909523D01*
X70266666Y-48814285D01*
X70219047Y-48623809D01*
X70219047Y-48480952D01*
X70266666Y-48290476D01*
X70314285Y-48195238D01*
X70409523Y-48100000D01*
X70552380Y-48052380D01*
X70647619Y-48052380D01*
X70790476Y-48100000D01*
X70838095Y-48147619D01*
X71838095Y-48957142D02*
X71790476Y-49004761D01*
X71647619Y-49052380D01*
X71552380Y-49052380D01*
X71409523Y-49004761D01*
X71314285Y-48909523D01*
X71266666Y-48814285D01*
X71219047Y-48623809D01*
X71219047Y-48480952D01*
X71266666Y-48290476D01*
X71314285Y-48195238D01*
X71409523Y-48100000D01*
X71552380Y-48052380D01*
X71647619Y-48052380D01*
X71790476Y-48100000D01*
X71838095Y-48147619D01*
X69922666Y-50655500D02*
X69838000Y-50613166D01*
X69711000Y-50613166D01*
X69584000Y-50655500D01*
X69499333Y-50740166D01*
X69457000Y-50824833D01*
X69414666Y-50994166D01*
X69414666Y-51121166D01*
X69457000Y-51290500D01*
X69499333Y-51375166D01*
X69584000Y-51459833D01*
X69711000Y-51502166D01*
X69795666Y-51502166D01*
X69922666Y-51459833D01*
X69965000Y-51417500D01*
X69965000Y-51121166D01*
X69795666Y-51121166D01*
X70346000Y-51502166D02*
X70346000Y-50613166D01*
X70854000Y-51502166D01*
X70854000Y-50613166D01*
X71277333Y-51502166D02*
X71277333Y-50613166D01*
X71489000Y-50613166D01*
X71616000Y-50655500D01*
X71700666Y-50740166D01*
X71743000Y-50824833D01*
X71785333Y-50994166D01*
X71785333Y-51121166D01*
X71743000Y-51290500D01*
X71700666Y-51375166D01*
X71616000Y-51459833D01*
X71489000Y-51502166D01*
X71277333Y-51502166D01*
D11*
X64810000Y-43370000D02*
G75*
G02X62810000Y-43370000I-1000000J0D01*
G01*
X62810000Y-43370000D02*
X61160000Y-43370000D01*
X61160000Y-43370000D02*
X61160000Y-53650000D01*
X61160000Y-53650000D02*
X66460000Y-53650000D01*
X66460000Y-53650000D02*
X66460000Y-43370000D01*
X66460000Y-43370000D02*
X64810000Y-43370000D01*
X75240000Y-39570000D02*
X75240000Y-52390000D01*
X75240000Y-52390000D02*
X77900000Y-52390000D01*
X77900000Y-52390000D02*
X77900000Y-39570000D01*
X77900000Y-39570000D02*
X75240000Y-39570000D01*
X77900000Y-40520000D02*
X83900000Y-40520000D01*
X83900000Y-40520000D02*
X83900000Y-41280000D01*
X83900000Y-41280000D02*
X77900000Y-41280000D01*
X77900000Y-40580000D02*
X83900000Y-40580000D01*
X77900000Y-40700000D02*
X83900000Y-40700000D01*
X77900000Y-40820000D02*
X83900000Y-40820000D01*
X77900000Y-40940000D02*
X83900000Y-40940000D01*
X77900000Y-41060000D02*
X83900000Y-41060000D01*
X77900000Y-41180000D02*
X83900000Y-41180000D01*
X74910000Y-40520000D02*
X75240000Y-40520000D01*
X74910000Y-41280000D02*
X75240000Y-41280000D01*
X75240000Y-42170000D02*
X77900000Y-42170000D01*
X77900000Y-43060000D02*
X83900000Y-43060000D01*
X83900000Y-43060000D02*
X83900000Y-43820000D01*
X83900000Y-43820000D02*
X77900000Y-43820000D01*
X74842929Y-43060000D02*
X75240000Y-43060000D01*
X74842929Y-43820000D02*
X75240000Y-43820000D01*
X75240000Y-44710000D02*
X77900000Y-44710000D01*
X77900000Y-45600000D02*
X83900000Y-45600000D01*
X83900000Y-45600000D02*
X83900000Y-46360000D01*
X83900000Y-46360000D02*
X77900000Y-46360000D01*
X74842929Y-45600000D02*
X75240000Y-45600000D01*
X74842929Y-46360000D02*
X75240000Y-46360000D01*
X75240000Y-47250000D02*
X77900000Y-47250000D01*
X77900000Y-48140000D02*
X83900000Y-48140000D01*
X83900000Y-48140000D02*
X83900000Y-48900000D01*
X83900000Y-48900000D02*
X77900000Y-48900000D01*
X74842929Y-48140000D02*
X75240000Y-48140000D01*
X74842929Y-48900000D02*
X75240000Y-48900000D01*
X75240000Y-49790000D02*
X77900000Y-49790000D01*
X77900000Y-50680000D02*
X83900000Y-50680000D01*
X83900000Y-50680000D02*
X83900000Y-51440000D01*
X83900000Y-51440000D02*
X77900000Y-51440000D01*
X74842929Y-50680000D02*
X75240000Y-50680000D01*
X74842929Y-51440000D02*
X75240000Y-51440000D01*
X72530000Y-40900000D02*
X72530000Y-39630000D01*
X72530000Y-39630000D02*
X73800000Y-39630000D01*
X66100217Y-39167137D02*
G75*
G03X64200000Y-39166856I-950217J-732863D01*
G01*
X66100217Y-40632863D02*
G75*
G02X64200000Y-40633144I-950217J732863D01*
G01*
X28500000Y-49200000D02*
X34200000Y-49200000D01*
X28500000Y-49200000D02*
X28500000Y-43200000D01*
X28500000Y-43200000D02*
X34200000Y-43200000D01*
X34951754Y-42673616D02*
G75*
G02X34200000Y-43200000I-751754J273616D01*
G01*
X57395671Y-46245281D02*
G75*
G03X34950000Y-42700000I-11495671J45281D01*
G01*
X34951754Y-49726384D02*
G75*
G03X34200000Y-49200000I-751754J-273616D01*
G01*
X57395671Y-46154719D02*
G75*
G02X34950000Y-49700000I-11495671J-45281D01*
G01*
D10*
X62838095Y-54252380D02*
X62838095Y-55061904D01*
X62885714Y-55157142D01*
X62933333Y-55204761D01*
X63028571Y-55252380D01*
X63219047Y-55252380D01*
X63314285Y-55204761D01*
X63361904Y-55157142D01*
X63409523Y-55061904D01*
X63409523Y-54252380D01*
X64409523Y-55252380D02*
X63838095Y-55252380D01*
X64123809Y-55252380D02*
X64123809Y-54252380D01*
X64028571Y-54395238D01*
X63933333Y-54490476D01*
X63838095Y-54538095D01*
X73466666Y-53052380D02*
X73466666Y-53766666D01*
X73419047Y-53909523D01*
X73323809Y-54004761D01*
X73180952Y-54052380D01*
X73085714Y-54052380D01*
X74466666Y-54052380D02*
X73895238Y-54052380D01*
X74180952Y-54052380D02*
X74180952Y-53052380D01*
X74085714Y-53195238D01*
X73990476Y-53290476D01*
X73895238Y-53338095D01*
X64723809Y-37376190D02*
X64723809Y-37852380D01*
X64390476Y-36852380D02*
X64723809Y-37376190D01*
X65057142Y-36852380D01*
X65914285Y-37852380D02*
X65342857Y-37852380D01*
X65628571Y-37852380D02*
X65628571Y-36852380D01*
X65533333Y-36995238D01*
X65438095Y-37090476D01*
X65342857Y-37138095D01*
X29914285Y-50428571D02*
X30057142Y-50476190D01*
X30104761Y-50523809D01*
X30152380Y-50619047D01*
X30152380Y-50761904D01*
X30104761Y-50857142D01*
X30057142Y-50904761D01*
X29961904Y-50952380D01*
X29580952Y-50952380D01*
X29580952Y-49952380D01*
X29914285Y-49952380D01*
X30009523Y-50000000D01*
X30057142Y-50047619D01*
X30104761Y-50142857D01*
X30104761Y-50238095D01*
X30057142Y-50333333D01*
X30009523Y-50380952D01*
X29914285Y-50428571D01*
X29580952Y-50428571D01*
X30438095Y-49952380D02*
X31009523Y-49952380D01*
X30723809Y-50952380D02*
X30723809Y-49952380D01*
X31866666Y-50952380D02*
X31295238Y-50952380D01*
X31580952Y-50952380D02*
X31580952Y-49952380D01*
X31485714Y-50095238D01*
X31390476Y-50190476D01*
X31295238Y-50238095D01*
X32878571Y-46307142D02*
X34021428Y-46307142D01*
X33450000Y-46878571D02*
X33450000Y-45735714D01*
M02*
