G04 #@! TF.GenerationSoftware,KiCad,Pcbnew,(5.1.2)-2*
G04 #@! TF.CreationDate,2019-09-23T01:23:54-05:00*
G04 #@! TF.ProjectId,rtc,7274632e-6b69-4636-9164-5f7063625858,rev?*
G04 #@! TF.SameCoordinates,Original*
G04 #@! TF.FileFunction,Soldermask,Bot*
G04 #@! TF.FilePolarity,Negative*
%FSLAX46Y46*%
G04 Gerber Fmt 4.6, Leading zero omitted, Abs format (unit mm)*
G04 Created by KiCad (PCBNEW (5.1.2)-2) date 2019-09-23 01:23:54*
%MOMM*%
%LPD*%
G04 APERTURE LIST*
%ADD10C,0.100000*%
G04 APERTURE END LIST*
D10*
G36*
X72975256Y-55991298D02*
G01*
X73081579Y-56012447D01*
X73382042Y-56136903D01*
X73652451Y-56317585D01*
X73882415Y-56547549D01*
X74063097Y-56817958D01*
X74187553Y-57118421D01*
X74251000Y-57437391D01*
X74251000Y-57762609D01*
X74187553Y-58081579D01*
X74063097Y-58382042D01*
X73882415Y-58652451D01*
X73652451Y-58882415D01*
X73382042Y-59063097D01*
X73081579Y-59187553D01*
X72975256Y-59208702D01*
X72762611Y-59251000D01*
X72437389Y-59251000D01*
X72224744Y-59208702D01*
X72118421Y-59187553D01*
X71817958Y-59063097D01*
X71547549Y-58882415D01*
X71317585Y-58652451D01*
X71136903Y-58382042D01*
X71012447Y-58081579D01*
X70949000Y-57762609D01*
X70949000Y-57437391D01*
X71012447Y-57118421D01*
X71136903Y-56817958D01*
X71317585Y-56547549D01*
X71547549Y-56317585D01*
X71817958Y-56136903D01*
X72118421Y-56012447D01*
X72224744Y-55991298D01*
X72437389Y-55949000D01*
X72762611Y-55949000D01*
X72975256Y-55991298D01*
X72975256Y-55991298D01*
G37*
G36*
X29775256Y-55991298D02*
G01*
X29881579Y-56012447D01*
X30182042Y-56136903D01*
X30452451Y-56317585D01*
X30682415Y-56547549D01*
X30863097Y-56817958D01*
X30987553Y-57118421D01*
X31051000Y-57437391D01*
X31051000Y-57762609D01*
X30987553Y-58081579D01*
X30863097Y-58382042D01*
X30682415Y-58652451D01*
X30452451Y-58882415D01*
X30182042Y-59063097D01*
X29881579Y-59187553D01*
X29775256Y-59208702D01*
X29562611Y-59251000D01*
X29237389Y-59251000D01*
X29024744Y-59208702D01*
X28918421Y-59187553D01*
X28617958Y-59063097D01*
X28347549Y-58882415D01*
X28117585Y-58652451D01*
X27936903Y-58382042D01*
X27812447Y-58081579D01*
X27749000Y-57762609D01*
X27749000Y-57437391D01*
X27812447Y-57118421D01*
X27936903Y-56817958D01*
X28117585Y-56547549D01*
X28347549Y-56317585D01*
X28617958Y-56136903D01*
X28918421Y-56012447D01*
X29024744Y-55991298D01*
X29237389Y-55949000D01*
X29562611Y-55949000D01*
X29775256Y-55991298D01*
X29775256Y-55991298D01*
G37*
G36*
X67786823Y-51481313D02*
G01*
X67947242Y-51529976D01*
X68079906Y-51600886D01*
X68095078Y-51608996D01*
X68224659Y-51715341D01*
X68331004Y-51844922D01*
X68331005Y-51844924D01*
X68410024Y-51992758D01*
X68458687Y-52153177D01*
X68475117Y-52320000D01*
X68458687Y-52486823D01*
X68410024Y-52647242D01*
X68339114Y-52779906D01*
X68331004Y-52795078D01*
X68224659Y-52924659D01*
X68095078Y-53031004D01*
X68095076Y-53031005D01*
X67947242Y-53110024D01*
X67786823Y-53158687D01*
X67661804Y-53171000D01*
X67578196Y-53171000D01*
X67453177Y-53158687D01*
X67292758Y-53110024D01*
X67144924Y-53031005D01*
X67144922Y-53031004D01*
X67015341Y-52924659D01*
X66908996Y-52795078D01*
X66900886Y-52779906D01*
X66829976Y-52647242D01*
X66781313Y-52486823D01*
X66764883Y-52320000D01*
X66781313Y-52153177D01*
X66829976Y-51992758D01*
X66908995Y-51844924D01*
X66908996Y-51844922D01*
X67015341Y-51715341D01*
X67144922Y-51608996D01*
X67160094Y-51600886D01*
X67292758Y-51529976D01*
X67453177Y-51481313D01*
X67578196Y-51469000D01*
X67661804Y-51469000D01*
X67786823Y-51481313D01*
X67786823Y-51481313D01*
G37*
G36*
X60166823Y-51481313D02*
G01*
X60327242Y-51529976D01*
X60459906Y-51600886D01*
X60475078Y-51608996D01*
X60604659Y-51715341D01*
X60711004Y-51844922D01*
X60711005Y-51844924D01*
X60790024Y-51992758D01*
X60838687Y-52153177D01*
X60855117Y-52320000D01*
X60838687Y-52486823D01*
X60790024Y-52647242D01*
X60719114Y-52779906D01*
X60711004Y-52795078D01*
X60604659Y-52924659D01*
X60475078Y-53031004D01*
X60475076Y-53031005D01*
X60327242Y-53110024D01*
X60166823Y-53158687D01*
X60041804Y-53171000D01*
X59958196Y-53171000D01*
X59833177Y-53158687D01*
X59672758Y-53110024D01*
X59524924Y-53031005D01*
X59524922Y-53031004D01*
X59395341Y-52924659D01*
X59288996Y-52795078D01*
X59280886Y-52779906D01*
X59209976Y-52647242D01*
X59161313Y-52486823D01*
X59144883Y-52320000D01*
X59161313Y-52153177D01*
X59209976Y-51992758D01*
X59288995Y-51844924D01*
X59288996Y-51844922D01*
X59395341Y-51715341D01*
X59524922Y-51608996D01*
X59540094Y-51600886D01*
X59672758Y-51529976D01*
X59833177Y-51481313D01*
X59958196Y-51469000D01*
X60041804Y-51469000D01*
X60166823Y-51481313D01*
X60166823Y-51481313D01*
G37*
G36*
X73910442Y-50165518D02*
G01*
X73976627Y-50172037D01*
X74146466Y-50223557D01*
X74302991Y-50307222D01*
X74338729Y-50336552D01*
X74440186Y-50419814D01*
X74498609Y-50491004D01*
X74552778Y-50557009D01*
X74636443Y-50713534D01*
X74687963Y-50883373D01*
X74705359Y-51060000D01*
X74687963Y-51236627D01*
X74636443Y-51406466D01*
X74552778Y-51562991D01*
X74523448Y-51598729D01*
X74440186Y-51700186D01*
X74338729Y-51783448D01*
X74302991Y-51812778D01*
X74146466Y-51896443D01*
X73976627Y-51947963D01*
X73910442Y-51954482D01*
X73844260Y-51961000D01*
X73755740Y-51961000D01*
X73689558Y-51954482D01*
X73623373Y-51947963D01*
X73453534Y-51896443D01*
X73297009Y-51812778D01*
X73261271Y-51783448D01*
X73159814Y-51700186D01*
X73076552Y-51598729D01*
X73047222Y-51562991D01*
X72963557Y-51406466D01*
X72912037Y-51236627D01*
X72894641Y-51060000D01*
X72912037Y-50883373D01*
X72963557Y-50713534D01*
X73047222Y-50557009D01*
X73101391Y-50491004D01*
X73159814Y-50419814D01*
X73261271Y-50336552D01*
X73297009Y-50307222D01*
X73453534Y-50223557D01*
X73623373Y-50172037D01*
X73689558Y-50165518D01*
X73755740Y-50159000D01*
X73844260Y-50159000D01*
X73910442Y-50165518D01*
X73910442Y-50165518D01*
G37*
G36*
X67786823Y-48941313D02*
G01*
X67947242Y-48989976D01*
X68079906Y-49060886D01*
X68095078Y-49068996D01*
X68224659Y-49175341D01*
X68331004Y-49304922D01*
X68331005Y-49304924D01*
X68410024Y-49452758D01*
X68458687Y-49613177D01*
X68475117Y-49780000D01*
X68458687Y-49946823D01*
X68410024Y-50107242D01*
X68375390Y-50172037D01*
X68331004Y-50255078D01*
X68224659Y-50384659D01*
X68095078Y-50491004D01*
X68095076Y-50491005D01*
X67947242Y-50570024D01*
X67786823Y-50618687D01*
X67661804Y-50631000D01*
X67578196Y-50631000D01*
X67453177Y-50618687D01*
X67292758Y-50570024D01*
X67144924Y-50491005D01*
X67144922Y-50491004D01*
X67015341Y-50384659D01*
X66908996Y-50255078D01*
X66864610Y-50172037D01*
X66829976Y-50107242D01*
X66781313Y-49946823D01*
X66764883Y-49780000D01*
X66781313Y-49613177D01*
X66829976Y-49452758D01*
X66908995Y-49304924D01*
X66908996Y-49304922D01*
X67015341Y-49175341D01*
X67144922Y-49068996D01*
X67160094Y-49060886D01*
X67292758Y-48989976D01*
X67453177Y-48941313D01*
X67578196Y-48929000D01*
X67661804Y-48929000D01*
X67786823Y-48941313D01*
X67786823Y-48941313D01*
G37*
G36*
X60166823Y-48941313D02*
G01*
X60327242Y-48989976D01*
X60459906Y-49060886D01*
X60475078Y-49068996D01*
X60604659Y-49175341D01*
X60711004Y-49304922D01*
X60711005Y-49304924D01*
X60790024Y-49452758D01*
X60838687Y-49613177D01*
X60855117Y-49780000D01*
X60838687Y-49946823D01*
X60790024Y-50107242D01*
X60755390Y-50172037D01*
X60711004Y-50255078D01*
X60604659Y-50384659D01*
X60475078Y-50491004D01*
X60475076Y-50491005D01*
X60327242Y-50570024D01*
X60166823Y-50618687D01*
X60041804Y-50631000D01*
X59958196Y-50631000D01*
X59833177Y-50618687D01*
X59672758Y-50570024D01*
X59524924Y-50491005D01*
X59524922Y-50491004D01*
X59395341Y-50384659D01*
X59288996Y-50255078D01*
X59244610Y-50172037D01*
X59209976Y-50107242D01*
X59161313Y-49946823D01*
X59144883Y-49780000D01*
X59161313Y-49613177D01*
X59209976Y-49452758D01*
X59288995Y-49304924D01*
X59288996Y-49304922D01*
X59395341Y-49175341D01*
X59524922Y-49068996D01*
X59540094Y-49060886D01*
X59672758Y-48989976D01*
X59833177Y-48941313D01*
X59958196Y-48929000D01*
X60041804Y-48929000D01*
X60166823Y-48941313D01*
X60166823Y-48941313D01*
G37*
G36*
X73910442Y-47625518D02*
G01*
X73976627Y-47632037D01*
X74146466Y-47683557D01*
X74302991Y-47767222D01*
X74338729Y-47796552D01*
X74440186Y-47879814D01*
X74498609Y-47951004D01*
X74552778Y-48017009D01*
X74636443Y-48173534D01*
X74687963Y-48343373D01*
X74705359Y-48520000D01*
X74687963Y-48696627D01*
X74636443Y-48866466D01*
X74552778Y-49022991D01*
X74523448Y-49058729D01*
X74440186Y-49160186D01*
X74338729Y-49243448D01*
X74302991Y-49272778D01*
X74146466Y-49356443D01*
X73976627Y-49407963D01*
X73910442Y-49414482D01*
X73844260Y-49421000D01*
X73755740Y-49421000D01*
X73689558Y-49414482D01*
X73623373Y-49407963D01*
X73453534Y-49356443D01*
X73297009Y-49272778D01*
X73261271Y-49243448D01*
X73159814Y-49160186D01*
X73076552Y-49058729D01*
X73047222Y-49022991D01*
X72963557Y-48866466D01*
X72912037Y-48696627D01*
X72894641Y-48520000D01*
X72912037Y-48343373D01*
X72963557Y-48173534D01*
X73047222Y-48017009D01*
X73101391Y-47951004D01*
X73159814Y-47879814D01*
X73261271Y-47796552D01*
X73297009Y-47767222D01*
X73453534Y-47683557D01*
X73623373Y-47632037D01*
X73689558Y-47625518D01*
X73755740Y-47619000D01*
X73844260Y-47619000D01*
X73910442Y-47625518D01*
X73910442Y-47625518D01*
G37*
G36*
X67786823Y-46401313D02*
G01*
X67947242Y-46449976D01*
X68079906Y-46520886D01*
X68095078Y-46528996D01*
X68224659Y-46635341D01*
X68331004Y-46764922D01*
X68331005Y-46764924D01*
X68410024Y-46912758D01*
X68458687Y-47073177D01*
X68475117Y-47240000D01*
X68458687Y-47406823D01*
X68410024Y-47567242D01*
X68375390Y-47632037D01*
X68331004Y-47715078D01*
X68224659Y-47844659D01*
X68095078Y-47951004D01*
X68095076Y-47951005D01*
X67947242Y-48030024D01*
X67786823Y-48078687D01*
X67661804Y-48091000D01*
X67578196Y-48091000D01*
X67453177Y-48078687D01*
X67292758Y-48030024D01*
X67144924Y-47951005D01*
X67144922Y-47951004D01*
X67015341Y-47844659D01*
X66908996Y-47715078D01*
X66864610Y-47632037D01*
X66829976Y-47567242D01*
X66781313Y-47406823D01*
X66764883Y-47240000D01*
X66781313Y-47073177D01*
X66829976Y-46912758D01*
X66908995Y-46764924D01*
X66908996Y-46764922D01*
X67015341Y-46635341D01*
X67144922Y-46528996D01*
X67160094Y-46520886D01*
X67292758Y-46449976D01*
X67453177Y-46401313D01*
X67578196Y-46389000D01*
X67661804Y-46389000D01*
X67786823Y-46401313D01*
X67786823Y-46401313D01*
G37*
G36*
X60166823Y-46401313D02*
G01*
X60327242Y-46449976D01*
X60459906Y-46520886D01*
X60475078Y-46528996D01*
X60604659Y-46635341D01*
X60711004Y-46764922D01*
X60711005Y-46764924D01*
X60790024Y-46912758D01*
X60838687Y-47073177D01*
X60855117Y-47240000D01*
X60838687Y-47406823D01*
X60790024Y-47567242D01*
X60755390Y-47632037D01*
X60711004Y-47715078D01*
X60604659Y-47844659D01*
X60475078Y-47951004D01*
X60475076Y-47951005D01*
X60327242Y-48030024D01*
X60166823Y-48078687D01*
X60041804Y-48091000D01*
X59958196Y-48091000D01*
X59833177Y-48078687D01*
X59672758Y-48030024D01*
X59524924Y-47951005D01*
X59524922Y-47951004D01*
X59395341Y-47844659D01*
X59288996Y-47715078D01*
X59244610Y-47632037D01*
X59209976Y-47567242D01*
X59161313Y-47406823D01*
X59144883Y-47240000D01*
X59161313Y-47073177D01*
X59209976Y-46912758D01*
X59288995Y-46764924D01*
X59288996Y-46764922D01*
X59395341Y-46635341D01*
X59524922Y-46528996D01*
X59540094Y-46520886D01*
X59672758Y-46449976D01*
X59833177Y-46401313D01*
X59958196Y-46389000D01*
X60041804Y-46389000D01*
X60166823Y-46401313D01*
X60166823Y-46401313D01*
G37*
G36*
X32251000Y-47751000D02*
G01*
X29149000Y-47751000D01*
X29149000Y-44649000D01*
X32251000Y-44649000D01*
X32251000Y-47751000D01*
X32251000Y-47751000D01*
G37*
G36*
X51492585Y-44678802D02*
G01*
X51642410Y-44708604D01*
X51924674Y-44825521D01*
X52178705Y-44995259D01*
X52394741Y-45211295D01*
X52564479Y-45465326D01*
X52681396Y-45747590D01*
X52681396Y-45747591D01*
X52741000Y-46047239D01*
X52741000Y-46352761D01*
X52711198Y-46502585D01*
X52681396Y-46652410D01*
X52564479Y-46934674D01*
X52394741Y-47188705D01*
X52178705Y-47404741D01*
X51924674Y-47574479D01*
X51642410Y-47691396D01*
X51523362Y-47715076D01*
X51342761Y-47751000D01*
X51037239Y-47751000D01*
X50856638Y-47715076D01*
X50737590Y-47691396D01*
X50455326Y-47574479D01*
X50201295Y-47404741D01*
X49985259Y-47188705D01*
X49815521Y-46934674D01*
X49698604Y-46652410D01*
X49668802Y-46502585D01*
X49639000Y-46352761D01*
X49639000Y-46047239D01*
X49698604Y-45747591D01*
X49698604Y-45747590D01*
X49815521Y-45465326D01*
X49985259Y-45211295D01*
X50201295Y-44995259D01*
X50455326Y-44825521D01*
X50737590Y-44708604D01*
X50887415Y-44678802D01*
X51037239Y-44649000D01*
X51342761Y-44649000D01*
X51492585Y-44678802D01*
X51492585Y-44678802D01*
G37*
G36*
X73910442Y-45085518D02*
G01*
X73976627Y-45092037D01*
X74146466Y-45143557D01*
X74302991Y-45227222D01*
X74338729Y-45256552D01*
X74440186Y-45339814D01*
X74498609Y-45411004D01*
X74552778Y-45477009D01*
X74636443Y-45633534D01*
X74687963Y-45803373D01*
X74705359Y-45980000D01*
X74687963Y-46156627D01*
X74636443Y-46326466D01*
X74636442Y-46326468D01*
X74622388Y-46352761D01*
X74552778Y-46482991D01*
X74523448Y-46518729D01*
X74440186Y-46620186D01*
X74338729Y-46703448D01*
X74302991Y-46732778D01*
X74146466Y-46816443D01*
X73976627Y-46867963D01*
X73910442Y-46874482D01*
X73844260Y-46881000D01*
X73755740Y-46881000D01*
X73689557Y-46874481D01*
X73623373Y-46867963D01*
X73453534Y-46816443D01*
X73297009Y-46732778D01*
X73261271Y-46703448D01*
X73159814Y-46620186D01*
X73076552Y-46518729D01*
X73047222Y-46482991D01*
X72977612Y-46352761D01*
X72963558Y-46326468D01*
X72963557Y-46326466D01*
X72912037Y-46156627D01*
X72894641Y-45980000D01*
X72912037Y-45803373D01*
X72963557Y-45633534D01*
X73047222Y-45477009D01*
X73101391Y-45411004D01*
X73159814Y-45339814D01*
X73261271Y-45256552D01*
X73297009Y-45227222D01*
X73453534Y-45143557D01*
X73623373Y-45092037D01*
X73689558Y-45085518D01*
X73755740Y-45079000D01*
X73844260Y-45079000D01*
X73910442Y-45085518D01*
X73910442Y-45085518D01*
G37*
G36*
X67786823Y-43861313D02*
G01*
X67947242Y-43909976D01*
X68079906Y-43980886D01*
X68095078Y-43988996D01*
X68224659Y-44095341D01*
X68331004Y-44224922D01*
X68331005Y-44224924D01*
X68410024Y-44372758D01*
X68458687Y-44533177D01*
X68475117Y-44700000D01*
X68458687Y-44866823D01*
X68410024Y-45027242D01*
X68375390Y-45092037D01*
X68331004Y-45175078D01*
X68224659Y-45304659D01*
X68095078Y-45411004D01*
X68095076Y-45411005D01*
X67947242Y-45490024D01*
X67786823Y-45538687D01*
X67661804Y-45551000D01*
X67578196Y-45551000D01*
X67453177Y-45538687D01*
X67292758Y-45490024D01*
X67144924Y-45411005D01*
X67144922Y-45411004D01*
X67015341Y-45304659D01*
X66908996Y-45175078D01*
X66864610Y-45092037D01*
X66829976Y-45027242D01*
X66781313Y-44866823D01*
X66764883Y-44700000D01*
X66781313Y-44533177D01*
X66829976Y-44372758D01*
X66908995Y-44224924D01*
X66908996Y-44224922D01*
X67015341Y-44095341D01*
X67144922Y-43988996D01*
X67160094Y-43980886D01*
X67292758Y-43909976D01*
X67453177Y-43861313D01*
X67578196Y-43849000D01*
X67661804Y-43849000D01*
X67786823Y-43861313D01*
X67786823Y-43861313D01*
G37*
G36*
X60851000Y-45551000D02*
G01*
X59149000Y-45551000D01*
X59149000Y-43849000D01*
X60851000Y-43849000D01*
X60851000Y-45551000D01*
X60851000Y-45551000D01*
G37*
G36*
X73910443Y-42545519D02*
G01*
X73976627Y-42552037D01*
X74146466Y-42603557D01*
X74302991Y-42687222D01*
X74338729Y-42716552D01*
X74440186Y-42799814D01*
X74523448Y-42901271D01*
X74552778Y-42937009D01*
X74636443Y-43093534D01*
X74687963Y-43263373D01*
X74705359Y-43440000D01*
X74687963Y-43616627D01*
X74636443Y-43786466D01*
X74552778Y-43942991D01*
X74523448Y-43978729D01*
X74440186Y-44080186D01*
X74338729Y-44163448D01*
X74302991Y-44192778D01*
X74146466Y-44276443D01*
X73976627Y-44327963D01*
X73910442Y-44334482D01*
X73844260Y-44341000D01*
X73755740Y-44341000D01*
X73689558Y-44334482D01*
X73623373Y-44327963D01*
X73453534Y-44276443D01*
X73297009Y-44192778D01*
X73261271Y-44163448D01*
X73159814Y-44080186D01*
X73076552Y-43978729D01*
X73047222Y-43942991D01*
X72963557Y-43786466D01*
X72912037Y-43616627D01*
X72894641Y-43440000D01*
X72912037Y-43263373D01*
X72963557Y-43093534D01*
X73047222Y-42937009D01*
X73076552Y-42901271D01*
X73159814Y-42799814D01*
X73261271Y-42716552D01*
X73297009Y-42687222D01*
X73453534Y-42603557D01*
X73623373Y-42552037D01*
X73689557Y-42545519D01*
X73755740Y-42539000D01*
X73844260Y-42539000D01*
X73910443Y-42545519D01*
X73910443Y-42545519D01*
G37*
G36*
X74701000Y-41801000D02*
G01*
X72899000Y-41801000D01*
X72899000Y-39999000D01*
X74701000Y-39999000D01*
X74701000Y-41801000D01*
X74701000Y-41801000D01*
G37*
G36*
X66260721Y-39370174D02*
G01*
X66360995Y-39411709D01*
X66360996Y-39411710D01*
X66451242Y-39472010D01*
X66527990Y-39548758D01*
X66527991Y-39548760D01*
X66588291Y-39639005D01*
X66629826Y-39739279D01*
X66651000Y-39845730D01*
X66651000Y-39954270D01*
X66629826Y-40060721D01*
X66588291Y-40160995D01*
X66588290Y-40160996D01*
X66527990Y-40251242D01*
X66451242Y-40327990D01*
X66405812Y-40358345D01*
X66360995Y-40388291D01*
X66260721Y-40429826D01*
X66154270Y-40451000D01*
X66045730Y-40451000D01*
X65939279Y-40429826D01*
X65839005Y-40388291D01*
X65794188Y-40358345D01*
X65748758Y-40327990D01*
X65672010Y-40251242D01*
X65611710Y-40160996D01*
X65611709Y-40160995D01*
X65570174Y-40060721D01*
X65549000Y-39954270D01*
X65549000Y-39845730D01*
X65570174Y-39739279D01*
X65611709Y-39639005D01*
X65672009Y-39548760D01*
X65672010Y-39548758D01*
X65748758Y-39472010D01*
X65839004Y-39411710D01*
X65839005Y-39411709D01*
X65939279Y-39370174D01*
X66045730Y-39349000D01*
X66154270Y-39349000D01*
X66260721Y-39370174D01*
X66260721Y-39370174D01*
G37*
G36*
X64360721Y-39370174D02*
G01*
X64460995Y-39411709D01*
X64460996Y-39411710D01*
X64551242Y-39472010D01*
X64627990Y-39548758D01*
X64627991Y-39548760D01*
X64688291Y-39639005D01*
X64729826Y-39739279D01*
X64751000Y-39845730D01*
X64751000Y-39954270D01*
X64729826Y-40060721D01*
X64688291Y-40160995D01*
X64688290Y-40160996D01*
X64627990Y-40251242D01*
X64551242Y-40327990D01*
X64505812Y-40358345D01*
X64460995Y-40388291D01*
X64360721Y-40429826D01*
X64254270Y-40451000D01*
X64145730Y-40451000D01*
X64039279Y-40429826D01*
X63939005Y-40388291D01*
X63894188Y-40358345D01*
X63848758Y-40327990D01*
X63772010Y-40251242D01*
X63711710Y-40160996D01*
X63711709Y-40160995D01*
X63670174Y-40060721D01*
X63649000Y-39954270D01*
X63649000Y-39845730D01*
X63670174Y-39739279D01*
X63711709Y-39639005D01*
X63772009Y-39548760D01*
X63772010Y-39548758D01*
X63848758Y-39472010D01*
X63939004Y-39411710D01*
X63939005Y-39411709D01*
X64039279Y-39370174D01*
X64145730Y-39349000D01*
X64254270Y-39349000D01*
X64360721Y-39370174D01*
X64360721Y-39370174D01*
G37*
G36*
X29775256Y-32791298D02*
G01*
X29881579Y-32812447D01*
X30182042Y-32936903D01*
X30452451Y-33117585D01*
X30682415Y-33347549D01*
X30863097Y-33617958D01*
X30987553Y-33918421D01*
X31051000Y-34237391D01*
X31051000Y-34562609D01*
X30987553Y-34881579D01*
X30863097Y-35182042D01*
X30682415Y-35452451D01*
X30452451Y-35682415D01*
X30182042Y-35863097D01*
X29881579Y-35987553D01*
X29775256Y-36008702D01*
X29562611Y-36051000D01*
X29237389Y-36051000D01*
X29024744Y-36008702D01*
X28918421Y-35987553D01*
X28617958Y-35863097D01*
X28347549Y-35682415D01*
X28117585Y-35452451D01*
X27936903Y-35182042D01*
X27812447Y-34881579D01*
X27749000Y-34562609D01*
X27749000Y-34237391D01*
X27812447Y-33918421D01*
X27936903Y-33617958D01*
X28117585Y-33347549D01*
X28347549Y-33117585D01*
X28617958Y-32936903D01*
X28918421Y-32812447D01*
X29024744Y-32791298D01*
X29237389Y-32749000D01*
X29562611Y-32749000D01*
X29775256Y-32791298D01*
X29775256Y-32791298D01*
G37*
G36*
X72975256Y-32791298D02*
G01*
X73081579Y-32812447D01*
X73382042Y-32936903D01*
X73652451Y-33117585D01*
X73882415Y-33347549D01*
X74063097Y-33617958D01*
X74187553Y-33918421D01*
X74251000Y-34237391D01*
X74251000Y-34562609D01*
X74187553Y-34881579D01*
X74063097Y-35182042D01*
X73882415Y-35452451D01*
X73652451Y-35682415D01*
X73382042Y-35863097D01*
X73081579Y-35987553D01*
X72975256Y-36008702D01*
X72762611Y-36051000D01*
X72437389Y-36051000D01*
X72224744Y-36008702D01*
X72118421Y-35987553D01*
X71817958Y-35863097D01*
X71547549Y-35682415D01*
X71317585Y-35452451D01*
X71136903Y-35182042D01*
X71012447Y-34881579D01*
X70949000Y-34562609D01*
X70949000Y-34237391D01*
X71012447Y-33918421D01*
X71136903Y-33617958D01*
X71317585Y-33347549D01*
X71547549Y-33117585D01*
X71817958Y-32936903D01*
X72118421Y-32812447D01*
X72224744Y-32791298D01*
X72437389Y-32749000D01*
X72762611Y-32749000D01*
X72975256Y-32791298D01*
X72975256Y-32791298D01*
G37*
M02*
