G04 #@! TF.GenerationSoftware,KiCad,Pcbnew,(5.1.2)-2*
G04 #@! TF.CreationDate,2019-09-23T01:23:54-05:00*
G04 #@! TF.ProjectId,rtc,7274632e-6b69-4636-9164-5f7063625858,rev?*
G04 #@! TF.SameCoordinates,Original*
G04 #@! TF.FileFunction,Copper,L1,Top*
G04 #@! TF.FilePolarity,Positive*
%FSLAX46Y46*%
G04 Gerber Fmt 4.6, Leading zero omitted, Abs format (unit mm)*
G04 Created by KiCad (PCBNEW (5.1.2)-2) date 2019-09-23 01:23:54*
%MOMM*%
%LPD*%
G04 APERTURE LIST*
%ADD10R,1.600000X1.600000*%
%ADD11O,1.600000X1.600000*%
%ADD12R,1.700000X1.700000*%
%ADD13O,1.700000X1.700000*%
%ADD14C,1.000000*%
%ADD15R,3.000000X3.000000*%
%ADD16C,3.000000*%
%ADD17C,0.508000*%
%ADD18C,0.254000*%
G04 APERTURE END LIST*
D10*
X60000000Y-44700000D03*
D11*
X67620000Y-52320000D03*
X60000000Y-47240000D03*
X67620000Y-49780000D03*
X60000000Y-49780000D03*
X67620000Y-47240000D03*
X60000000Y-52320000D03*
X67620000Y-44700000D03*
D12*
X73800000Y-40900000D03*
D13*
X73800000Y-43440000D03*
X73800000Y-45980000D03*
X73800000Y-48520000D03*
X73800000Y-51060000D03*
D14*
X64200000Y-39900000D03*
X66100000Y-39900000D03*
D15*
X30700000Y-46200000D03*
D16*
X51190000Y-46200000D03*
D17*
X71300000Y-43400000D02*
X73800000Y-40900000D01*
X67620000Y-47240000D02*
X71300000Y-44560000D01*
X71300000Y-44560000D02*
X71300000Y-43400000D01*
X72950001Y-44289999D02*
X73800000Y-43440000D01*
X71400000Y-45840000D02*
X72950001Y-44289999D01*
X67620000Y-49780000D02*
X71400000Y-47000000D01*
X71400000Y-47000000D02*
X71400000Y-45840000D01*
X72950001Y-46829999D02*
X73800000Y-45980000D01*
X72000000Y-47780000D02*
X72950001Y-46829999D01*
X67620000Y-52320000D02*
X72000000Y-48940000D01*
X72000000Y-48940000D02*
X72000000Y-47780000D01*
X62560000Y-47240000D02*
X60000000Y-47240000D01*
X64200000Y-39900000D02*
X64200000Y-45600000D01*
X64200000Y-45600000D02*
X62560000Y-47240000D01*
X61820000Y-49780000D02*
X60000000Y-49780000D01*
X66100000Y-39900000D02*
X66100000Y-45500000D01*
X66100000Y-45500000D02*
X61820000Y-49780000D01*
D18*
G36*
X73131586Y-31715287D02*
G01*
X73642927Y-31869670D01*
X74114540Y-32120431D01*
X74528467Y-32458022D01*
X74868940Y-32869583D01*
X75122987Y-33339433D01*
X75280937Y-33849688D01*
X75340001Y-34411647D01*
X75340000Y-57567722D01*
X75284713Y-58131586D01*
X75130330Y-58642927D01*
X74879569Y-59114540D01*
X74541976Y-59528470D01*
X74130418Y-59868940D01*
X73660567Y-60122987D01*
X73150314Y-60280937D01*
X72588362Y-60340000D01*
X29432278Y-60340000D01*
X28868414Y-60284713D01*
X28357073Y-60130330D01*
X27885460Y-59879569D01*
X27471530Y-59541976D01*
X27131060Y-59130418D01*
X26877013Y-58660567D01*
X26719063Y-58150314D01*
X26660000Y-57588362D01*
X26660000Y-57379872D01*
X27165000Y-57379872D01*
X27165000Y-57820128D01*
X27250890Y-58251925D01*
X27419369Y-58658669D01*
X27663962Y-59024729D01*
X27975271Y-59336038D01*
X28341331Y-59580631D01*
X28748075Y-59749110D01*
X29179872Y-59835000D01*
X29620128Y-59835000D01*
X30051925Y-59749110D01*
X30458669Y-59580631D01*
X30824729Y-59336038D01*
X31136038Y-59024729D01*
X31380631Y-58658669D01*
X31549110Y-58251925D01*
X31635000Y-57820128D01*
X31635000Y-57379872D01*
X70365000Y-57379872D01*
X70365000Y-57820128D01*
X70450890Y-58251925D01*
X70619369Y-58658669D01*
X70863962Y-59024729D01*
X71175271Y-59336038D01*
X71541331Y-59580631D01*
X71948075Y-59749110D01*
X72379872Y-59835000D01*
X72820128Y-59835000D01*
X73251925Y-59749110D01*
X73658669Y-59580631D01*
X74024729Y-59336038D01*
X74336038Y-59024729D01*
X74580631Y-58658669D01*
X74749110Y-58251925D01*
X74835000Y-57820128D01*
X74835000Y-57379872D01*
X74749110Y-56948075D01*
X74580631Y-56541331D01*
X74336038Y-56175271D01*
X74024729Y-55863962D01*
X73658669Y-55619369D01*
X73251925Y-55450890D01*
X72820128Y-55365000D01*
X72379872Y-55365000D01*
X71948075Y-55450890D01*
X71541331Y-55619369D01*
X71175271Y-55863962D01*
X70863962Y-56175271D01*
X70619369Y-56541331D01*
X70450890Y-56948075D01*
X70365000Y-57379872D01*
X31635000Y-57379872D01*
X31549110Y-56948075D01*
X31380631Y-56541331D01*
X31136038Y-56175271D01*
X30824729Y-55863962D01*
X30458669Y-55619369D01*
X30051925Y-55450890D01*
X29620128Y-55365000D01*
X29179872Y-55365000D01*
X28748075Y-55450890D01*
X28341331Y-55619369D01*
X27975271Y-55863962D01*
X27663962Y-56175271D01*
X27419369Y-56541331D01*
X27250890Y-56948075D01*
X27165000Y-57379872D01*
X26660000Y-57379872D01*
X26660000Y-44700000D01*
X28561928Y-44700000D01*
X28561928Y-47700000D01*
X28574188Y-47824482D01*
X28610498Y-47944180D01*
X28669463Y-48054494D01*
X28748815Y-48151185D01*
X28845506Y-48230537D01*
X28955820Y-48289502D01*
X29075518Y-48325812D01*
X29200000Y-48338072D01*
X32200000Y-48338072D01*
X32324482Y-48325812D01*
X32444180Y-48289502D01*
X32554494Y-48230537D01*
X32651185Y-48151185D01*
X32730537Y-48054494D01*
X32789502Y-47944180D01*
X32825812Y-47824482D01*
X32838072Y-47700000D01*
X32838072Y-45989721D01*
X49055000Y-45989721D01*
X49055000Y-46410279D01*
X49137047Y-46822756D01*
X49297988Y-47211302D01*
X49531637Y-47560983D01*
X49829017Y-47858363D01*
X50178698Y-48092012D01*
X50567244Y-48252953D01*
X50979721Y-48335000D01*
X51400279Y-48335000D01*
X51812756Y-48252953D01*
X52201302Y-48092012D01*
X52550983Y-47858363D01*
X52848363Y-47560983D01*
X53062836Y-47240000D01*
X58558057Y-47240000D01*
X58585764Y-47521309D01*
X58667818Y-47791808D01*
X58801068Y-48041101D01*
X58980392Y-48259608D01*
X59198899Y-48438932D01*
X59331858Y-48510000D01*
X59198899Y-48581068D01*
X58980392Y-48760392D01*
X58801068Y-48978899D01*
X58667818Y-49228192D01*
X58585764Y-49498691D01*
X58558057Y-49780000D01*
X58585764Y-50061309D01*
X58667818Y-50331808D01*
X58801068Y-50581101D01*
X58980392Y-50799608D01*
X59198899Y-50978932D01*
X59331858Y-51050000D01*
X59198899Y-51121068D01*
X58980392Y-51300392D01*
X58801068Y-51518899D01*
X58667818Y-51768192D01*
X58585764Y-52038691D01*
X58558057Y-52320000D01*
X58585764Y-52601309D01*
X58667818Y-52871808D01*
X58801068Y-53121101D01*
X58980392Y-53339608D01*
X59198899Y-53518932D01*
X59448192Y-53652182D01*
X59718691Y-53734236D01*
X59929508Y-53755000D01*
X60070492Y-53755000D01*
X60281309Y-53734236D01*
X60551808Y-53652182D01*
X60801101Y-53518932D01*
X61019608Y-53339608D01*
X61198932Y-53121101D01*
X61332182Y-52871808D01*
X61414236Y-52601309D01*
X61441943Y-52320000D01*
X61414236Y-52038691D01*
X61332182Y-51768192D01*
X61198932Y-51518899D01*
X61019608Y-51300392D01*
X60801101Y-51121068D01*
X60668142Y-51050000D01*
X60801101Y-50978932D01*
X61019608Y-50799608D01*
X61126795Y-50669000D01*
X61776340Y-50669000D01*
X61820000Y-50673300D01*
X61863660Y-50669000D01*
X61863667Y-50669000D01*
X61994274Y-50656136D01*
X62161851Y-50605303D01*
X62316291Y-50522753D01*
X62451659Y-50411659D01*
X62479499Y-50377736D01*
X66433567Y-46423669D01*
X66421068Y-46438899D01*
X66287818Y-46688192D01*
X66205764Y-46958691D01*
X66178057Y-47240000D01*
X66205764Y-47521309D01*
X66287818Y-47791808D01*
X66421068Y-48041101D01*
X66600392Y-48259608D01*
X66818899Y-48438932D01*
X66951858Y-48510000D01*
X66818899Y-48581068D01*
X66600392Y-48760392D01*
X66421068Y-48978899D01*
X66287818Y-49228192D01*
X66205764Y-49498691D01*
X66178057Y-49780000D01*
X66205764Y-50061309D01*
X66287818Y-50331808D01*
X66421068Y-50581101D01*
X66600392Y-50799608D01*
X66818899Y-50978932D01*
X66951858Y-51050000D01*
X66818899Y-51121068D01*
X66600392Y-51300392D01*
X66421068Y-51518899D01*
X66287818Y-51768192D01*
X66205764Y-52038691D01*
X66178057Y-52320000D01*
X66205764Y-52601309D01*
X66287818Y-52871808D01*
X66421068Y-53121101D01*
X66600392Y-53339608D01*
X66818899Y-53518932D01*
X67068192Y-53652182D01*
X67338691Y-53734236D01*
X67549508Y-53755000D01*
X67690492Y-53755000D01*
X67901309Y-53734236D01*
X68171808Y-53652182D01*
X68421101Y-53518932D01*
X68639608Y-53339608D01*
X68818932Y-53121101D01*
X68952182Y-52871808D01*
X69034236Y-52601309D01*
X69060857Y-52331031D01*
X72484445Y-49689084D01*
X72496290Y-49682753D01*
X72553638Y-49635689D01*
X72577689Y-49617129D01*
X72587418Y-49607967D01*
X72631659Y-49571659D01*
X72651019Y-49548069D01*
X72673229Y-49527152D01*
X72689994Y-49503621D01*
X72702412Y-49520269D01*
X72918645Y-49715178D01*
X73035523Y-49784799D01*
X72970986Y-49819294D01*
X72744866Y-50004866D01*
X72559294Y-50230986D01*
X72421401Y-50488966D01*
X72336487Y-50768889D01*
X72307815Y-51060000D01*
X72336487Y-51351111D01*
X72421401Y-51631034D01*
X72559294Y-51889014D01*
X72744866Y-52115134D01*
X72970986Y-52300706D01*
X73228966Y-52438599D01*
X73508889Y-52523513D01*
X73727050Y-52545000D01*
X73872950Y-52545000D01*
X74091111Y-52523513D01*
X74371034Y-52438599D01*
X74629014Y-52300706D01*
X74855134Y-52115134D01*
X75040706Y-51889014D01*
X75178599Y-51631034D01*
X75263513Y-51351111D01*
X75292185Y-51060000D01*
X75263513Y-50768889D01*
X75178599Y-50488966D01*
X75040706Y-50230986D01*
X74855134Y-50004866D01*
X74629014Y-49819294D01*
X74564477Y-49784799D01*
X74681355Y-49715178D01*
X74897588Y-49520269D01*
X75071641Y-49286920D01*
X75196825Y-49024099D01*
X75241476Y-48876890D01*
X75120155Y-48647000D01*
X73927000Y-48647000D01*
X73927000Y-48667000D01*
X73673000Y-48667000D01*
X73673000Y-48647000D01*
X73653000Y-48647000D01*
X73653000Y-48393000D01*
X73673000Y-48393000D01*
X73673000Y-48373000D01*
X73927000Y-48373000D01*
X73927000Y-48393000D01*
X75120155Y-48393000D01*
X75241476Y-48163110D01*
X75196825Y-48015901D01*
X75071641Y-47753080D01*
X74897588Y-47519731D01*
X74681355Y-47324822D01*
X74564477Y-47255201D01*
X74629014Y-47220706D01*
X74855134Y-47035134D01*
X75040706Y-46809014D01*
X75178599Y-46551034D01*
X75263513Y-46271111D01*
X75292185Y-45980000D01*
X75263513Y-45688889D01*
X75178599Y-45408966D01*
X75040706Y-45150986D01*
X74855134Y-44924866D01*
X74629014Y-44739294D01*
X74574209Y-44710000D01*
X74629014Y-44680706D01*
X74855134Y-44495134D01*
X75040706Y-44269014D01*
X75178599Y-44011034D01*
X75263513Y-43731111D01*
X75292185Y-43440000D01*
X75263513Y-43148889D01*
X75178599Y-42868966D01*
X75040706Y-42610986D01*
X74855134Y-42384866D01*
X74825313Y-42360393D01*
X74894180Y-42339502D01*
X75004494Y-42280537D01*
X75101185Y-42201185D01*
X75180537Y-42104494D01*
X75239502Y-41994180D01*
X75275812Y-41874482D01*
X75288072Y-41750000D01*
X75288072Y-40050000D01*
X75275812Y-39925518D01*
X75239502Y-39805820D01*
X75180537Y-39695506D01*
X75101185Y-39598815D01*
X75004494Y-39519463D01*
X74894180Y-39460498D01*
X74774482Y-39424188D01*
X74650000Y-39411928D01*
X72950000Y-39411928D01*
X72825518Y-39424188D01*
X72705820Y-39460498D01*
X72595506Y-39519463D01*
X72498815Y-39598815D01*
X72419463Y-39695506D01*
X72360498Y-39805820D01*
X72324188Y-39925518D01*
X72311928Y-40050000D01*
X72311928Y-41130836D01*
X70702259Y-42740506D01*
X70668342Y-42768341D01*
X70640507Y-42802258D01*
X70640505Y-42802260D01*
X70557248Y-42903709D01*
X70474698Y-43058148D01*
X70423864Y-43225726D01*
X70406700Y-43400000D01*
X70411001Y-43443669D01*
X70411000Y-44107660D01*
X68984011Y-45146882D01*
X69034236Y-44981309D01*
X69061943Y-44700000D01*
X69034236Y-44418691D01*
X68952182Y-44148192D01*
X68818932Y-43898899D01*
X68639608Y-43680392D01*
X68421101Y-43501068D01*
X68171808Y-43367818D01*
X67901309Y-43285764D01*
X67690492Y-43265000D01*
X67549508Y-43265000D01*
X67338691Y-43285764D01*
X67068192Y-43367818D01*
X66989000Y-43410147D01*
X66989000Y-40612463D01*
X67105824Y-40437624D01*
X67191383Y-40231067D01*
X67235000Y-40011788D01*
X67235000Y-39788212D01*
X67191383Y-39568933D01*
X67105824Y-39362376D01*
X66981612Y-39176480D01*
X66823520Y-39018388D01*
X66637624Y-38894176D01*
X66431067Y-38808617D01*
X66211788Y-38765000D01*
X65988212Y-38765000D01*
X65768933Y-38808617D01*
X65562376Y-38894176D01*
X65376480Y-39018388D01*
X65218388Y-39176480D01*
X65150000Y-39278830D01*
X65081612Y-39176480D01*
X64923520Y-39018388D01*
X64737624Y-38894176D01*
X64531067Y-38808617D01*
X64311788Y-38765000D01*
X64088212Y-38765000D01*
X63868933Y-38808617D01*
X63662376Y-38894176D01*
X63476480Y-39018388D01*
X63318388Y-39176480D01*
X63194176Y-39362376D01*
X63108617Y-39568933D01*
X63065000Y-39788212D01*
X63065000Y-40011788D01*
X63108617Y-40231067D01*
X63194176Y-40437624D01*
X63311000Y-40612463D01*
X63311001Y-45231764D01*
X62191765Y-46351000D01*
X61126795Y-46351000D01*
X61019608Y-46220392D01*
X60906518Y-46127581D01*
X60924482Y-46125812D01*
X61044180Y-46089502D01*
X61154494Y-46030537D01*
X61251185Y-45951185D01*
X61330537Y-45854494D01*
X61389502Y-45744180D01*
X61425812Y-45624482D01*
X61438072Y-45500000D01*
X61435000Y-44985750D01*
X61276250Y-44827000D01*
X60127000Y-44827000D01*
X60127000Y-44847000D01*
X59873000Y-44847000D01*
X59873000Y-44827000D01*
X58723750Y-44827000D01*
X58565000Y-44985750D01*
X58561928Y-45500000D01*
X58574188Y-45624482D01*
X58610498Y-45744180D01*
X58669463Y-45854494D01*
X58748815Y-45951185D01*
X58845506Y-46030537D01*
X58955820Y-46089502D01*
X59075518Y-46125812D01*
X59093482Y-46127581D01*
X58980392Y-46220392D01*
X58801068Y-46438899D01*
X58667818Y-46688192D01*
X58585764Y-46958691D01*
X58558057Y-47240000D01*
X53062836Y-47240000D01*
X53082012Y-47211302D01*
X53242953Y-46822756D01*
X53325000Y-46410279D01*
X53325000Y-45989721D01*
X53242953Y-45577244D01*
X53082012Y-45188698D01*
X52848363Y-44839017D01*
X52550983Y-44541637D01*
X52201302Y-44307988D01*
X51812756Y-44147047D01*
X51400279Y-44065000D01*
X50979721Y-44065000D01*
X50567244Y-44147047D01*
X50178698Y-44307988D01*
X49829017Y-44541637D01*
X49531637Y-44839017D01*
X49297988Y-45188698D01*
X49137047Y-45577244D01*
X49055000Y-45989721D01*
X32838072Y-45989721D01*
X32838072Y-44700000D01*
X32825812Y-44575518D01*
X32789502Y-44455820D01*
X32730537Y-44345506D01*
X32651185Y-44248815D01*
X32554494Y-44169463D01*
X32444180Y-44110498D01*
X32324482Y-44074188D01*
X32200000Y-44061928D01*
X29200000Y-44061928D01*
X29075518Y-44074188D01*
X28955820Y-44110498D01*
X28845506Y-44169463D01*
X28748815Y-44248815D01*
X28669463Y-44345506D01*
X28610498Y-44455820D01*
X28574188Y-44575518D01*
X28561928Y-44700000D01*
X26660000Y-44700000D01*
X26660000Y-43900000D01*
X58561928Y-43900000D01*
X58565000Y-44414250D01*
X58723750Y-44573000D01*
X59873000Y-44573000D01*
X59873000Y-43423750D01*
X60127000Y-43423750D01*
X60127000Y-44573000D01*
X61276250Y-44573000D01*
X61435000Y-44414250D01*
X61438072Y-43900000D01*
X61425812Y-43775518D01*
X61389502Y-43655820D01*
X61330537Y-43545506D01*
X61251185Y-43448815D01*
X61154494Y-43369463D01*
X61044180Y-43310498D01*
X60924482Y-43274188D01*
X60800000Y-43261928D01*
X60285750Y-43265000D01*
X60127000Y-43423750D01*
X59873000Y-43423750D01*
X59714250Y-43265000D01*
X59200000Y-43261928D01*
X59075518Y-43274188D01*
X58955820Y-43310498D01*
X58845506Y-43369463D01*
X58748815Y-43448815D01*
X58669463Y-43545506D01*
X58610498Y-43655820D01*
X58574188Y-43775518D01*
X58561928Y-43900000D01*
X26660000Y-43900000D01*
X26660000Y-34432278D01*
X26684748Y-34179872D01*
X27165000Y-34179872D01*
X27165000Y-34620128D01*
X27250890Y-35051925D01*
X27419369Y-35458669D01*
X27663962Y-35824729D01*
X27975271Y-36136038D01*
X28341331Y-36380631D01*
X28748075Y-36549110D01*
X29179872Y-36635000D01*
X29620128Y-36635000D01*
X30051925Y-36549110D01*
X30458669Y-36380631D01*
X30824729Y-36136038D01*
X31136038Y-35824729D01*
X31380631Y-35458669D01*
X31549110Y-35051925D01*
X31635000Y-34620128D01*
X31635000Y-34179872D01*
X70365000Y-34179872D01*
X70365000Y-34620128D01*
X70450890Y-35051925D01*
X70619369Y-35458669D01*
X70863962Y-35824729D01*
X71175271Y-36136038D01*
X71541331Y-36380631D01*
X71948075Y-36549110D01*
X72379872Y-36635000D01*
X72820128Y-36635000D01*
X73251925Y-36549110D01*
X73658669Y-36380631D01*
X74024729Y-36136038D01*
X74336038Y-35824729D01*
X74580631Y-35458669D01*
X74749110Y-35051925D01*
X74835000Y-34620128D01*
X74835000Y-34179872D01*
X74749110Y-33748075D01*
X74580631Y-33341331D01*
X74336038Y-32975271D01*
X74024729Y-32663962D01*
X73658669Y-32419369D01*
X73251925Y-32250890D01*
X72820128Y-32165000D01*
X72379872Y-32165000D01*
X71948075Y-32250890D01*
X71541331Y-32419369D01*
X71175271Y-32663962D01*
X70863962Y-32975271D01*
X70619369Y-33341331D01*
X70450890Y-33748075D01*
X70365000Y-34179872D01*
X31635000Y-34179872D01*
X31549110Y-33748075D01*
X31380631Y-33341331D01*
X31136038Y-32975271D01*
X30824729Y-32663962D01*
X30458669Y-32419369D01*
X30051925Y-32250890D01*
X29620128Y-32165000D01*
X29179872Y-32165000D01*
X28748075Y-32250890D01*
X28341331Y-32419369D01*
X27975271Y-32663962D01*
X27663962Y-32975271D01*
X27419369Y-33341331D01*
X27250890Y-33748075D01*
X27165000Y-34179872D01*
X26684748Y-34179872D01*
X26715287Y-33868414D01*
X26869670Y-33357073D01*
X27120431Y-32885460D01*
X27458022Y-32471533D01*
X27869583Y-32131060D01*
X28339433Y-31877013D01*
X28849688Y-31719063D01*
X29411638Y-31660000D01*
X72567722Y-31660000D01*
X73131586Y-31715287D01*
X73131586Y-31715287D01*
G37*
X73131586Y-31715287D02*
X73642927Y-31869670D01*
X74114540Y-32120431D01*
X74528467Y-32458022D01*
X74868940Y-32869583D01*
X75122987Y-33339433D01*
X75280937Y-33849688D01*
X75340001Y-34411647D01*
X75340000Y-57567722D01*
X75284713Y-58131586D01*
X75130330Y-58642927D01*
X74879569Y-59114540D01*
X74541976Y-59528470D01*
X74130418Y-59868940D01*
X73660567Y-60122987D01*
X73150314Y-60280937D01*
X72588362Y-60340000D01*
X29432278Y-60340000D01*
X28868414Y-60284713D01*
X28357073Y-60130330D01*
X27885460Y-59879569D01*
X27471530Y-59541976D01*
X27131060Y-59130418D01*
X26877013Y-58660567D01*
X26719063Y-58150314D01*
X26660000Y-57588362D01*
X26660000Y-57379872D01*
X27165000Y-57379872D01*
X27165000Y-57820128D01*
X27250890Y-58251925D01*
X27419369Y-58658669D01*
X27663962Y-59024729D01*
X27975271Y-59336038D01*
X28341331Y-59580631D01*
X28748075Y-59749110D01*
X29179872Y-59835000D01*
X29620128Y-59835000D01*
X30051925Y-59749110D01*
X30458669Y-59580631D01*
X30824729Y-59336038D01*
X31136038Y-59024729D01*
X31380631Y-58658669D01*
X31549110Y-58251925D01*
X31635000Y-57820128D01*
X31635000Y-57379872D01*
X70365000Y-57379872D01*
X70365000Y-57820128D01*
X70450890Y-58251925D01*
X70619369Y-58658669D01*
X70863962Y-59024729D01*
X71175271Y-59336038D01*
X71541331Y-59580631D01*
X71948075Y-59749110D01*
X72379872Y-59835000D01*
X72820128Y-59835000D01*
X73251925Y-59749110D01*
X73658669Y-59580631D01*
X74024729Y-59336038D01*
X74336038Y-59024729D01*
X74580631Y-58658669D01*
X74749110Y-58251925D01*
X74835000Y-57820128D01*
X74835000Y-57379872D01*
X74749110Y-56948075D01*
X74580631Y-56541331D01*
X74336038Y-56175271D01*
X74024729Y-55863962D01*
X73658669Y-55619369D01*
X73251925Y-55450890D01*
X72820128Y-55365000D01*
X72379872Y-55365000D01*
X71948075Y-55450890D01*
X71541331Y-55619369D01*
X71175271Y-55863962D01*
X70863962Y-56175271D01*
X70619369Y-56541331D01*
X70450890Y-56948075D01*
X70365000Y-57379872D01*
X31635000Y-57379872D01*
X31549110Y-56948075D01*
X31380631Y-56541331D01*
X31136038Y-56175271D01*
X30824729Y-55863962D01*
X30458669Y-55619369D01*
X30051925Y-55450890D01*
X29620128Y-55365000D01*
X29179872Y-55365000D01*
X28748075Y-55450890D01*
X28341331Y-55619369D01*
X27975271Y-55863962D01*
X27663962Y-56175271D01*
X27419369Y-56541331D01*
X27250890Y-56948075D01*
X27165000Y-57379872D01*
X26660000Y-57379872D01*
X26660000Y-44700000D01*
X28561928Y-44700000D01*
X28561928Y-47700000D01*
X28574188Y-47824482D01*
X28610498Y-47944180D01*
X28669463Y-48054494D01*
X28748815Y-48151185D01*
X28845506Y-48230537D01*
X28955820Y-48289502D01*
X29075518Y-48325812D01*
X29200000Y-48338072D01*
X32200000Y-48338072D01*
X32324482Y-48325812D01*
X32444180Y-48289502D01*
X32554494Y-48230537D01*
X32651185Y-48151185D01*
X32730537Y-48054494D01*
X32789502Y-47944180D01*
X32825812Y-47824482D01*
X32838072Y-47700000D01*
X32838072Y-45989721D01*
X49055000Y-45989721D01*
X49055000Y-46410279D01*
X49137047Y-46822756D01*
X49297988Y-47211302D01*
X49531637Y-47560983D01*
X49829017Y-47858363D01*
X50178698Y-48092012D01*
X50567244Y-48252953D01*
X50979721Y-48335000D01*
X51400279Y-48335000D01*
X51812756Y-48252953D01*
X52201302Y-48092012D01*
X52550983Y-47858363D01*
X52848363Y-47560983D01*
X53062836Y-47240000D01*
X58558057Y-47240000D01*
X58585764Y-47521309D01*
X58667818Y-47791808D01*
X58801068Y-48041101D01*
X58980392Y-48259608D01*
X59198899Y-48438932D01*
X59331858Y-48510000D01*
X59198899Y-48581068D01*
X58980392Y-48760392D01*
X58801068Y-48978899D01*
X58667818Y-49228192D01*
X58585764Y-49498691D01*
X58558057Y-49780000D01*
X58585764Y-50061309D01*
X58667818Y-50331808D01*
X58801068Y-50581101D01*
X58980392Y-50799608D01*
X59198899Y-50978932D01*
X59331858Y-51050000D01*
X59198899Y-51121068D01*
X58980392Y-51300392D01*
X58801068Y-51518899D01*
X58667818Y-51768192D01*
X58585764Y-52038691D01*
X58558057Y-52320000D01*
X58585764Y-52601309D01*
X58667818Y-52871808D01*
X58801068Y-53121101D01*
X58980392Y-53339608D01*
X59198899Y-53518932D01*
X59448192Y-53652182D01*
X59718691Y-53734236D01*
X59929508Y-53755000D01*
X60070492Y-53755000D01*
X60281309Y-53734236D01*
X60551808Y-53652182D01*
X60801101Y-53518932D01*
X61019608Y-53339608D01*
X61198932Y-53121101D01*
X61332182Y-52871808D01*
X61414236Y-52601309D01*
X61441943Y-52320000D01*
X61414236Y-52038691D01*
X61332182Y-51768192D01*
X61198932Y-51518899D01*
X61019608Y-51300392D01*
X60801101Y-51121068D01*
X60668142Y-51050000D01*
X60801101Y-50978932D01*
X61019608Y-50799608D01*
X61126795Y-50669000D01*
X61776340Y-50669000D01*
X61820000Y-50673300D01*
X61863660Y-50669000D01*
X61863667Y-50669000D01*
X61994274Y-50656136D01*
X62161851Y-50605303D01*
X62316291Y-50522753D01*
X62451659Y-50411659D01*
X62479499Y-50377736D01*
X66433567Y-46423669D01*
X66421068Y-46438899D01*
X66287818Y-46688192D01*
X66205764Y-46958691D01*
X66178057Y-47240000D01*
X66205764Y-47521309D01*
X66287818Y-47791808D01*
X66421068Y-48041101D01*
X66600392Y-48259608D01*
X66818899Y-48438932D01*
X66951858Y-48510000D01*
X66818899Y-48581068D01*
X66600392Y-48760392D01*
X66421068Y-48978899D01*
X66287818Y-49228192D01*
X66205764Y-49498691D01*
X66178057Y-49780000D01*
X66205764Y-50061309D01*
X66287818Y-50331808D01*
X66421068Y-50581101D01*
X66600392Y-50799608D01*
X66818899Y-50978932D01*
X66951858Y-51050000D01*
X66818899Y-51121068D01*
X66600392Y-51300392D01*
X66421068Y-51518899D01*
X66287818Y-51768192D01*
X66205764Y-52038691D01*
X66178057Y-52320000D01*
X66205764Y-52601309D01*
X66287818Y-52871808D01*
X66421068Y-53121101D01*
X66600392Y-53339608D01*
X66818899Y-53518932D01*
X67068192Y-53652182D01*
X67338691Y-53734236D01*
X67549508Y-53755000D01*
X67690492Y-53755000D01*
X67901309Y-53734236D01*
X68171808Y-53652182D01*
X68421101Y-53518932D01*
X68639608Y-53339608D01*
X68818932Y-53121101D01*
X68952182Y-52871808D01*
X69034236Y-52601309D01*
X69060857Y-52331031D01*
X72484445Y-49689084D01*
X72496290Y-49682753D01*
X72553638Y-49635689D01*
X72577689Y-49617129D01*
X72587418Y-49607967D01*
X72631659Y-49571659D01*
X72651019Y-49548069D01*
X72673229Y-49527152D01*
X72689994Y-49503621D01*
X72702412Y-49520269D01*
X72918645Y-49715178D01*
X73035523Y-49784799D01*
X72970986Y-49819294D01*
X72744866Y-50004866D01*
X72559294Y-50230986D01*
X72421401Y-50488966D01*
X72336487Y-50768889D01*
X72307815Y-51060000D01*
X72336487Y-51351111D01*
X72421401Y-51631034D01*
X72559294Y-51889014D01*
X72744866Y-52115134D01*
X72970986Y-52300706D01*
X73228966Y-52438599D01*
X73508889Y-52523513D01*
X73727050Y-52545000D01*
X73872950Y-52545000D01*
X74091111Y-52523513D01*
X74371034Y-52438599D01*
X74629014Y-52300706D01*
X74855134Y-52115134D01*
X75040706Y-51889014D01*
X75178599Y-51631034D01*
X75263513Y-51351111D01*
X75292185Y-51060000D01*
X75263513Y-50768889D01*
X75178599Y-50488966D01*
X75040706Y-50230986D01*
X74855134Y-50004866D01*
X74629014Y-49819294D01*
X74564477Y-49784799D01*
X74681355Y-49715178D01*
X74897588Y-49520269D01*
X75071641Y-49286920D01*
X75196825Y-49024099D01*
X75241476Y-48876890D01*
X75120155Y-48647000D01*
X73927000Y-48647000D01*
X73927000Y-48667000D01*
X73673000Y-48667000D01*
X73673000Y-48647000D01*
X73653000Y-48647000D01*
X73653000Y-48393000D01*
X73673000Y-48393000D01*
X73673000Y-48373000D01*
X73927000Y-48373000D01*
X73927000Y-48393000D01*
X75120155Y-48393000D01*
X75241476Y-48163110D01*
X75196825Y-48015901D01*
X75071641Y-47753080D01*
X74897588Y-47519731D01*
X74681355Y-47324822D01*
X74564477Y-47255201D01*
X74629014Y-47220706D01*
X74855134Y-47035134D01*
X75040706Y-46809014D01*
X75178599Y-46551034D01*
X75263513Y-46271111D01*
X75292185Y-45980000D01*
X75263513Y-45688889D01*
X75178599Y-45408966D01*
X75040706Y-45150986D01*
X74855134Y-44924866D01*
X74629014Y-44739294D01*
X74574209Y-44710000D01*
X74629014Y-44680706D01*
X74855134Y-44495134D01*
X75040706Y-44269014D01*
X75178599Y-44011034D01*
X75263513Y-43731111D01*
X75292185Y-43440000D01*
X75263513Y-43148889D01*
X75178599Y-42868966D01*
X75040706Y-42610986D01*
X74855134Y-42384866D01*
X74825313Y-42360393D01*
X74894180Y-42339502D01*
X75004494Y-42280537D01*
X75101185Y-42201185D01*
X75180537Y-42104494D01*
X75239502Y-41994180D01*
X75275812Y-41874482D01*
X75288072Y-41750000D01*
X75288072Y-40050000D01*
X75275812Y-39925518D01*
X75239502Y-39805820D01*
X75180537Y-39695506D01*
X75101185Y-39598815D01*
X75004494Y-39519463D01*
X74894180Y-39460498D01*
X74774482Y-39424188D01*
X74650000Y-39411928D01*
X72950000Y-39411928D01*
X72825518Y-39424188D01*
X72705820Y-39460498D01*
X72595506Y-39519463D01*
X72498815Y-39598815D01*
X72419463Y-39695506D01*
X72360498Y-39805820D01*
X72324188Y-39925518D01*
X72311928Y-40050000D01*
X72311928Y-41130836D01*
X70702259Y-42740506D01*
X70668342Y-42768341D01*
X70640507Y-42802258D01*
X70640505Y-42802260D01*
X70557248Y-42903709D01*
X70474698Y-43058148D01*
X70423864Y-43225726D01*
X70406700Y-43400000D01*
X70411001Y-43443669D01*
X70411000Y-44107660D01*
X68984011Y-45146882D01*
X69034236Y-44981309D01*
X69061943Y-44700000D01*
X69034236Y-44418691D01*
X68952182Y-44148192D01*
X68818932Y-43898899D01*
X68639608Y-43680392D01*
X68421101Y-43501068D01*
X68171808Y-43367818D01*
X67901309Y-43285764D01*
X67690492Y-43265000D01*
X67549508Y-43265000D01*
X67338691Y-43285764D01*
X67068192Y-43367818D01*
X66989000Y-43410147D01*
X66989000Y-40612463D01*
X67105824Y-40437624D01*
X67191383Y-40231067D01*
X67235000Y-40011788D01*
X67235000Y-39788212D01*
X67191383Y-39568933D01*
X67105824Y-39362376D01*
X66981612Y-39176480D01*
X66823520Y-39018388D01*
X66637624Y-38894176D01*
X66431067Y-38808617D01*
X66211788Y-38765000D01*
X65988212Y-38765000D01*
X65768933Y-38808617D01*
X65562376Y-38894176D01*
X65376480Y-39018388D01*
X65218388Y-39176480D01*
X65150000Y-39278830D01*
X65081612Y-39176480D01*
X64923520Y-39018388D01*
X64737624Y-38894176D01*
X64531067Y-38808617D01*
X64311788Y-38765000D01*
X64088212Y-38765000D01*
X63868933Y-38808617D01*
X63662376Y-38894176D01*
X63476480Y-39018388D01*
X63318388Y-39176480D01*
X63194176Y-39362376D01*
X63108617Y-39568933D01*
X63065000Y-39788212D01*
X63065000Y-40011788D01*
X63108617Y-40231067D01*
X63194176Y-40437624D01*
X63311000Y-40612463D01*
X63311001Y-45231764D01*
X62191765Y-46351000D01*
X61126795Y-46351000D01*
X61019608Y-46220392D01*
X60906518Y-46127581D01*
X60924482Y-46125812D01*
X61044180Y-46089502D01*
X61154494Y-46030537D01*
X61251185Y-45951185D01*
X61330537Y-45854494D01*
X61389502Y-45744180D01*
X61425812Y-45624482D01*
X61438072Y-45500000D01*
X61435000Y-44985750D01*
X61276250Y-44827000D01*
X60127000Y-44827000D01*
X60127000Y-44847000D01*
X59873000Y-44847000D01*
X59873000Y-44827000D01*
X58723750Y-44827000D01*
X58565000Y-44985750D01*
X58561928Y-45500000D01*
X58574188Y-45624482D01*
X58610498Y-45744180D01*
X58669463Y-45854494D01*
X58748815Y-45951185D01*
X58845506Y-46030537D01*
X58955820Y-46089502D01*
X59075518Y-46125812D01*
X59093482Y-46127581D01*
X58980392Y-46220392D01*
X58801068Y-46438899D01*
X58667818Y-46688192D01*
X58585764Y-46958691D01*
X58558057Y-47240000D01*
X53062836Y-47240000D01*
X53082012Y-47211302D01*
X53242953Y-46822756D01*
X53325000Y-46410279D01*
X53325000Y-45989721D01*
X53242953Y-45577244D01*
X53082012Y-45188698D01*
X52848363Y-44839017D01*
X52550983Y-44541637D01*
X52201302Y-44307988D01*
X51812756Y-44147047D01*
X51400279Y-44065000D01*
X50979721Y-44065000D01*
X50567244Y-44147047D01*
X50178698Y-44307988D01*
X49829017Y-44541637D01*
X49531637Y-44839017D01*
X49297988Y-45188698D01*
X49137047Y-45577244D01*
X49055000Y-45989721D01*
X32838072Y-45989721D01*
X32838072Y-44700000D01*
X32825812Y-44575518D01*
X32789502Y-44455820D01*
X32730537Y-44345506D01*
X32651185Y-44248815D01*
X32554494Y-44169463D01*
X32444180Y-44110498D01*
X32324482Y-44074188D01*
X32200000Y-44061928D01*
X29200000Y-44061928D01*
X29075518Y-44074188D01*
X28955820Y-44110498D01*
X28845506Y-44169463D01*
X28748815Y-44248815D01*
X28669463Y-44345506D01*
X28610498Y-44455820D01*
X28574188Y-44575518D01*
X28561928Y-44700000D01*
X26660000Y-44700000D01*
X26660000Y-43900000D01*
X58561928Y-43900000D01*
X58565000Y-44414250D01*
X58723750Y-44573000D01*
X59873000Y-44573000D01*
X59873000Y-43423750D01*
X60127000Y-43423750D01*
X60127000Y-44573000D01*
X61276250Y-44573000D01*
X61435000Y-44414250D01*
X61438072Y-43900000D01*
X61425812Y-43775518D01*
X61389502Y-43655820D01*
X61330537Y-43545506D01*
X61251185Y-43448815D01*
X61154494Y-43369463D01*
X61044180Y-43310498D01*
X60924482Y-43274188D01*
X60800000Y-43261928D01*
X60285750Y-43265000D01*
X60127000Y-43423750D01*
X59873000Y-43423750D01*
X59714250Y-43265000D01*
X59200000Y-43261928D01*
X59075518Y-43274188D01*
X58955820Y-43310498D01*
X58845506Y-43369463D01*
X58748815Y-43448815D01*
X58669463Y-43545506D01*
X58610498Y-43655820D01*
X58574188Y-43775518D01*
X58561928Y-43900000D01*
X26660000Y-43900000D01*
X26660000Y-34432278D01*
X26684748Y-34179872D01*
X27165000Y-34179872D01*
X27165000Y-34620128D01*
X27250890Y-35051925D01*
X27419369Y-35458669D01*
X27663962Y-35824729D01*
X27975271Y-36136038D01*
X28341331Y-36380631D01*
X28748075Y-36549110D01*
X29179872Y-36635000D01*
X29620128Y-36635000D01*
X30051925Y-36549110D01*
X30458669Y-36380631D01*
X30824729Y-36136038D01*
X31136038Y-35824729D01*
X31380631Y-35458669D01*
X31549110Y-35051925D01*
X31635000Y-34620128D01*
X31635000Y-34179872D01*
X70365000Y-34179872D01*
X70365000Y-34620128D01*
X70450890Y-35051925D01*
X70619369Y-35458669D01*
X70863962Y-35824729D01*
X71175271Y-36136038D01*
X71541331Y-36380631D01*
X71948075Y-36549110D01*
X72379872Y-36635000D01*
X72820128Y-36635000D01*
X73251925Y-36549110D01*
X73658669Y-36380631D01*
X74024729Y-36136038D01*
X74336038Y-35824729D01*
X74580631Y-35458669D01*
X74749110Y-35051925D01*
X74835000Y-34620128D01*
X74835000Y-34179872D01*
X74749110Y-33748075D01*
X74580631Y-33341331D01*
X74336038Y-32975271D01*
X74024729Y-32663962D01*
X73658669Y-32419369D01*
X73251925Y-32250890D01*
X72820128Y-32165000D01*
X72379872Y-32165000D01*
X71948075Y-32250890D01*
X71541331Y-32419369D01*
X71175271Y-32663962D01*
X70863962Y-32975271D01*
X70619369Y-33341331D01*
X70450890Y-33748075D01*
X70365000Y-34179872D01*
X31635000Y-34179872D01*
X31549110Y-33748075D01*
X31380631Y-33341331D01*
X31136038Y-32975271D01*
X30824729Y-32663962D01*
X30458669Y-32419369D01*
X30051925Y-32250890D01*
X29620128Y-32165000D01*
X29179872Y-32165000D01*
X28748075Y-32250890D01*
X28341331Y-32419369D01*
X27975271Y-32663962D01*
X27663962Y-32975271D01*
X27419369Y-33341331D01*
X27250890Y-33748075D01*
X27165000Y-34179872D01*
X26684748Y-34179872D01*
X26715287Y-33868414D01*
X26869670Y-33357073D01*
X27120431Y-32885460D01*
X27458022Y-32471533D01*
X27869583Y-32131060D01*
X28339433Y-31877013D01*
X28849688Y-31719063D01*
X29411638Y-31660000D01*
X72567722Y-31660000D01*
X73131586Y-31715287D01*
M02*
