G04 #@! TF.GenerationSoftware,KiCad,Pcbnew,(5.1.2)-2*
G04 #@! TF.CreationDate,2019-09-23T01:23:54-05:00*
G04 #@! TF.ProjectId,rtc,7274632e-6b69-4636-9164-5f7063625858,rev?*
G04 #@! TF.SameCoordinates,Original*
G04 #@! TF.FileFunction,Legend,Bot*
G04 #@! TF.FilePolarity,Positive*
%FSLAX46Y46*%
G04 Gerber Fmt 4.6, Leading zero omitted, Abs format (unit mm)*
G04 Created by KiCad (PCBNEW (5.1.2)-2) date 2019-09-23 01:23:54*
%MOMM*%
%LPD*%
G04 APERTURE LIST*
%ADD10C,0.010000*%
G04 APERTURE END LIST*
D10*
G36*
X41702458Y-57142483D02*
G01*
X41398790Y-57225407D01*
X41591897Y-57276614D01*
X41967662Y-57298327D01*
X42667171Y-57435382D01*
X42986061Y-57816561D01*
X43001478Y-57869474D01*
X43238112Y-58328523D01*
X43491483Y-58336367D01*
X43613593Y-57891776D01*
X43613684Y-57874568D01*
X43378807Y-57405630D01*
X42763545Y-57133978D01*
X41901947Y-57110959D01*
X41702458Y-57142483D01*
X41702458Y-57142483D01*
G37*
X41702458Y-57142483D02*
X41398790Y-57225407D01*
X41591897Y-57276614D01*
X41967662Y-57298327D01*
X42667171Y-57435382D01*
X42986061Y-57816561D01*
X43001478Y-57869474D01*
X43238112Y-58328523D01*
X43491483Y-58336367D01*
X43613593Y-57891776D01*
X43613684Y-57874568D01*
X43378807Y-57405630D01*
X42763545Y-57133978D01*
X41901947Y-57110959D01*
X41702458Y-57142483D01*
G36*
X46063041Y-55596843D02*
G01*
X46111512Y-56405025D01*
X46246379Y-57338575D01*
X46272030Y-57468422D01*
X46410645Y-58085494D01*
X46483503Y-58208256D01*
X46519032Y-57868772D01*
X46523990Y-57752610D01*
X46554737Y-56967324D01*
X47347175Y-57726528D01*
X47903253Y-58194404D01*
X48275201Y-58297459D01*
X48533242Y-58159050D01*
X49033055Y-57971946D01*
X49461121Y-58118289D01*
X49962637Y-58360244D01*
X50224944Y-58359039D01*
X50387017Y-58225965D01*
X50530015Y-57838711D01*
X50557133Y-57490702D01*
X50525402Y-57105412D01*
X50382738Y-57225345D01*
X50265551Y-57421106D01*
X50029280Y-57747759D01*
X49776291Y-57702849D01*
X49447428Y-57424655D01*
X49038057Y-57101031D01*
X48781537Y-57151670D01*
X48549863Y-57437069D01*
X48284592Y-57737610D01*
X48014174Y-57742668D01*
X47558924Y-57430914D01*
X47393747Y-57299835D01*
X46776111Y-56606579D01*
X46353830Y-55783885D01*
X46337895Y-55730527D01*
X46075266Y-54794738D01*
X46063041Y-55596843D01*
X46063041Y-55596843D01*
G37*
X46063041Y-55596843D02*
X46111512Y-56405025D01*
X46246379Y-57338575D01*
X46272030Y-57468422D01*
X46410645Y-58085494D01*
X46483503Y-58208256D01*
X46519032Y-57868772D01*
X46523990Y-57752610D01*
X46554737Y-56967324D01*
X47347175Y-57726528D01*
X47903253Y-58194404D01*
X48275201Y-58297459D01*
X48533242Y-58159050D01*
X49033055Y-57971946D01*
X49461121Y-58118289D01*
X49962637Y-58360244D01*
X50224944Y-58359039D01*
X50387017Y-58225965D01*
X50530015Y-57838711D01*
X50557133Y-57490702D01*
X50525402Y-57105412D01*
X50382738Y-57225345D01*
X50265551Y-57421106D01*
X50029280Y-57747759D01*
X49776291Y-57702849D01*
X49447428Y-57424655D01*
X49038057Y-57101031D01*
X48781537Y-57151670D01*
X48549863Y-57437069D01*
X48284592Y-57737610D01*
X48014174Y-57742668D01*
X47558924Y-57430914D01*
X47393747Y-57299835D01*
X46776111Y-56606579D01*
X46353830Y-55783885D01*
X46337895Y-55730527D01*
X46075266Y-54794738D01*
X46063041Y-55596843D01*
G36*
X58140702Y-58225965D02*
G01*
X58177403Y-58384916D01*
X58318947Y-58404211D01*
X58539022Y-58306385D01*
X58497193Y-58225965D01*
X58179889Y-58193967D01*
X58140702Y-58225965D01*
X58140702Y-58225965D01*
G37*
X58140702Y-58225965D02*
X58177403Y-58384916D01*
X58318947Y-58404211D01*
X58539022Y-58306385D01*
X58497193Y-58225965D01*
X58179889Y-58193967D01*
X58140702Y-58225965D01*
G36*
X59179364Y-55542593D02*
G01*
X59249744Y-55975161D01*
X59302011Y-56565798D01*
X59067407Y-56838959D01*
X58936777Y-56882610D01*
X58641688Y-56998289D01*
X58821347Y-57124736D01*
X59054210Y-57203896D01*
X59521605Y-57485812D01*
X59655789Y-57751194D01*
X59832233Y-58193125D01*
X59923158Y-58270527D01*
X60146503Y-58203277D01*
X60190526Y-57981571D01*
X60388307Y-57461128D01*
X60658421Y-57172190D01*
X60964127Y-56900910D01*
X60795054Y-56816560D01*
X60550892Y-56808504D01*
X60014577Y-56574948D01*
X59695853Y-55997895D01*
X59419827Y-55378431D01*
X59226968Y-55225609D01*
X59179364Y-55542593D01*
X59179364Y-55542593D01*
G37*
X59179364Y-55542593D02*
X59249744Y-55975161D01*
X59302011Y-56565798D01*
X59067407Y-56838959D01*
X58936777Y-56882610D01*
X58641688Y-56998289D01*
X58821347Y-57124736D01*
X59054210Y-57203896D01*
X59521605Y-57485812D01*
X59655789Y-57751194D01*
X59832233Y-58193125D01*
X59923158Y-58270527D01*
X60146503Y-58203277D01*
X60190526Y-57981571D01*
X60388307Y-57461128D01*
X60658421Y-57172190D01*
X60964127Y-56900910D01*
X60795054Y-56816560D01*
X60550892Y-56808504D01*
X60014577Y-56574948D01*
X59695853Y-55997895D01*
X59419827Y-55378431D01*
X59226968Y-55225609D01*
X59179364Y-55542593D01*
G36*
X44163617Y-57191661D02*
G01*
X43886823Y-57532866D01*
X44078007Y-57802148D01*
X44448527Y-57869474D01*
X44834772Y-57928012D01*
X44757199Y-58177563D01*
X44683158Y-58270527D01*
X44517458Y-58594378D01*
X44746514Y-58631571D01*
X45284737Y-58382795D01*
X45673178Y-57986554D01*
X45752631Y-57727598D01*
X45545093Y-57423860D01*
X44861403Y-57423860D01*
X44824702Y-57582810D01*
X44683158Y-57602106D01*
X44463083Y-57504280D01*
X44504912Y-57423860D01*
X44822216Y-57391861D01*
X44861403Y-57423860D01*
X45545093Y-57423860D01*
X45525465Y-57395135D01*
X45004188Y-57161382D01*
X44429136Y-57107398D01*
X44163617Y-57191661D01*
X44163617Y-57191661D01*
G37*
X44163617Y-57191661D02*
X43886823Y-57532866D01*
X44078007Y-57802148D01*
X44448527Y-57869474D01*
X44834772Y-57928012D01*
X44757199Y-58177563D01*
X44683158Y-58270527D01*
X44517458Y-58594378D01*
X44746514Y-58631571D01*
X45284737Y-58382795D01*
X45673178Y-57986554D01*
X45752631Y-57727598D01*
X45545093Y-57423860D01*
X44861403Y-57423860D01*
X44824702Y-57582810D01*
X44683158Y-57602106D01*
X44463083Y-57504280D01*
X44504912Y-57423860D01*
X44822216Y-57391861D01*
X44861403Y-57423860D01*
X45545093Y-57423860D01*
X45525465Y-57395135D01*
X45004188Y-57161382D01*
X44429136Y-57107398D01*
X44163617Y-57191661D01*
G36*
X51030047Y-57054550D02*
G01*
X50832631Y-57584307D01*
X51060892Y-58177596D01*
X51630172Y-58536982D01*
X52367226Y-58575089D01*
X52637368Y-58494506D01*
X52947488Y-58145958D01*
X52917606Y-57802632D01*
X52639030Y-57802632D01*
X52538886Y-58075056D01*
X52077798Y-58120725D01*
X51522920Y-57974553D01*
X51155513Y-57703700D01*
X51100000Y-57555741D01*
X51308263Y-57383829D01*
X51782095Y-57385056D01*
X52295059Y-57523096D01*
X52620720Y-57761625D01*
X52639030Y-57802632D01*
X52917606Y-57802632D01*
X52903162Y-57636682D01*
X52547039Y-57164086D01*
X52320208Y-57026489D01*
X51562950Y-56850827D01*
X51030047Y-57054550D01*
X51030047Y-57054550D01*
G37*
X51030047Y-57054550D02*
X50832631Y-57584307D01*
X51060892Y-58177596D01*
X51630172Y-58536982D01*
X52367226Y-58575089D01*
X52637368Y-58494506D01*
X52947488Y-58145958D01*
X52917606Y-57802632D01*
X52639030Y-57802632D01*
X52538886Y-58075056D01*
X52077798Y-58120725D01*
X51522920Y-57974553D01*
X51155513Y-57703700D01*
X51100000Y-57555741D01*
X51308263Y-57383829D01*
X51782095Y-57385056D01*
X52295059Y-57523096D01*
X52620720Y-57761625D01*
X52639030Y-57802632D01*
X52917606Y-57802632D01*
X52903162Y-57636682D01*
X52547039Y-57164086D01*
X52320208Y-57026489D01*
X51562950Y-56850827D01*
X51030047Y-57054550D01*
G36*
X53434380Y-55514976D02*
G01*
X52819044Y-55690002D01*
X52491317Y-55996378D01*
X52490854Y-55997895D01*
X52461722Y-56253139D01*
X52707245Y-56080723D01*
X52724263Y-56064737D01*
X53376246Y-55749598D01*
X54038849Y-55932159D01*
X54426944Y-56324755D01*
X54780514Y-56927010D01*
X54732131Y-57237713D01*
X54253620Y-57347719D01*
X54107895Y-57353529D01*
X53644847Y-57388254D01*
X53675639Y-57482488D01*
X53887420Y-57574004D01*
X54387775Y-57936963D01*
X54555841Y-58203747D01*
X54718513Y-58483461D01*
X54998496Y-58399561D01*
X55244210Y-58219959D01*
X55573177Y-57866660D01*
X55444737Y-57682828D01*
X55153546Y-57342330D01*
X55110526Y-57104579D01*
X54883172Y-56287911D01*
X54300300Y-55709189D01*
X53510692Y-55509514D01*
X53434380Y-55514976D01*
X53434380Y-55514976D01*
G37*
X53434380Y-55514976D02*
X52819044Y-55690002D01*
X52491317Y-55996378D01*
X52490854Y-55997895D01*
X52461722Y-56253139D01*
X52707245Y-56080723D01*
X52724263Y-56064737D01*
X53376246Y-55749598D01*
X54038849Y-55932159D01*
X54426944Y-56324755D01*
X54780514Y-56927010D01*
X54732131Y-57237713D01*
X54253620Y-57347719D01*
X54107895Y-57353529D01*
X53644847Y-57388254D01*
X53675639Y-57482488D01*
X53887420Y-57574004D01*
X54387775Y-57936963D01*
X54555841Y-58203747D01*
X54718513Y-58483461D01*
X54998496Y-58399561D01*
X55244210Y-58219959D01*
X55573177Y-57866660D01*
X55444737Y-57682828D01*
X55153546Y-57342330D01*
X55110526Y-57104579D01*
X54883172Y-56287911D01*
X54300300Y-55709189D01*
X53510692Y-55509514D01*
X53434380Y-55514976D01*
M02*
