M48
; DRILL file {KiCad (5.1.2)-2} date 9/23/2019 1:23:57 AM
; FORMAT={2:4/ absolute / inch / suppress trailing zeros}
; #@! TF.CreationDate,2019-09-23T01:23:57-05:00
; #@! TF.GenerationSoftware,Kicad,Pcbnew,(5.1.2)-2
FMAT,2
INCH,LZ
T1C0.0197
T2C0.0315
T3C0.0394
T4C0.0591
T5C0.1260
%
G90
G05
T1
X025276Y-015709
X026024Y-015709
T2
X023622Y-017598
X023622Y-018598
X023622Y-019598
X023622Y-020598
X026622Y-017598
X026622Y-018598
X026622Y-019598
X026622Y-020598
T3
X029055Y-016102
X029055Y-017102
X029055Y-018102
X029055Y-019102
X029055Y-020102
T4
X012087Y-018189
X020154Y-018189
T5
X028583Y-022677
X011575Y-022677
X028583Y-013543
X011575Y-013543
T0
M30
